<?xml version="1.0" encoding="utf-8"?>
<!-- Generator: Adobe Illustrator 16.0.0, SVG Export Plug-In . SVG Version: 6.00 Build 0)  -->
<!DOCTYPE svg PUBLIC "-//W3C//DTD SVG 1.1//EN" "http://www.w3.org/Graphics/SVG/1.1/DTD/svg11.dtd">
<svg version="1.1" id="Layer_1" xmlns="http://www.w3.org/2000/svg" xmlns:xlink="http://www.w3.org/1999/xlink" x="0px" y="0px"
	 width="612px" height="792px" viewBox="0 0 612 792" enable-background="new 0 0 612 792" xml:space="preserve">
<g>
	<defs>
		<rect id="SVGID_1_" x="272" y="337.936" width="131.939" height="115.064"/>
	</defs>
	<clipPath id="SVGID_2_">
		<use xlink:href="#SVGID_1_"  overflow="visible"/>
	</clipPath>
	
		<ellipse clip-path="url(#SVGID_2_)" fill="none" stroke="#17BFD7" stroke-width="4" cx="337.971" cy="395.468" rx="63.969" ry="55.532"/>
	<path clip-path="url(#SVGID_2_)" fill="#00AEEF" d="M337.971,446.464c32.484,0,58.818-22.832,58.818-50.996
		c0-28.165-26.334-50.996-58.818-50.996c-32.486,0-58.82,22.831-58.82,50.996C279.151,423.632,305.485,446.464,337.971,446.464"/>
	<path clip-path="url(#SVGID_2_)" fill="#FFFFFF" d="M290.101,387.824c0.28-2.84,0.68-4.88,0.84-6.399c0,0,0.72-0.601,0.72-1.36
		c0,0.04,0.04-1.16-1.36-1.16c-0.36,0-0.76,0.24-0.96,1.12c-0.28,1.16-0.8,4.24-1.12,7.84c-1.48,0.08-2.72,0.12-3.44,0.12
		c-0.36,0-0.52,0.32-0.52,0.64c0,0.44,0.28,0.96,0.72,0.96l3.08-0.04c2.571,65.046,51.13,28.062,58.333,8.095
		c14.766,47.037,36.419,17.974,35.806,3.454c0.24,0.04,0.52,0.04,0.76,0.04c5.08,0,8.4-3.881,8.4-8.641
		c0-4.84-2.76-8.399-7.88-8.399h-0.399c-0.201-0.2-0.601-0.32-0.961-0.32c-0.4,0-0.76,0.16-0.8,0.52
		c-2.601,0.561-4.88,2.16-4.88,4.601c0,0.84,0.48,1.16,1,1.16c0.48,0,0.96-0.28,1.04-0.721c0.36-1.96,1.44-2.8,2.72-3.199
		c-0.199,3.359-0.52,6.399-0.8,11.76l-0.138,1.988c1.984,12.33-18.961,44.369-32.424-5.016c0.547-1.562,1.101-3.334,1.66-5.312
		c0.561-1.979,1.088-4.069,1.582-6.271c0.495-2.2,0.944-4.446,1.348-6.738c0.404-2.291,0.709-4.512,0.918-6.659
		c0.209-2.148,0.312-4.174,0.312-6.074c0-1.901-0.156-3.568-0.468-5c-0.313-1.433-0.795-2.565-1.446-3.399
		c-0.65-0.833-1.51-1.262-2.578-1.289c-1.354-0.024-2.5,0.386-3.437,1.231c-0.938,0.846-1.706,1.999-2.306,3.457
		c-0.599,1.459-1.041,3.164-1.328,5.117c-0.286,1.953-0.448,4.022-0.487,6.211c-0.039,2.187,0.032,4.439,0.215,6.758
		c0.181,2.318,0.435,4.57,0.761,6.758s0.709,4.245,1.153,6.171c0.442,1.928,0.925,3.608,1.445,5.04
		c2.512,7.434-50.016,65.11-55.242-5.321 M382.439,397.372c0.199-4.199,0.561-7.76,0.76-11.56c0.16,0,0.36-0.04,0.641-0.04
		c3.799,0,5.6,3.16,5.6,6.439c0,5.24-3.08,7.32-6.439,7.32c-0.24,0-0.48,0-0.721-0.04L382.439,397.372z M382.439,397.372
		c0.199-4.199,0.561-7.76,0.76-11.56c0.16,0,0.36-0.04,0.641-0.04c3.799,0,5.6,3.16,5.6,6.439c0,5.24-3.08,7.32-6.439,7.32
		c-0.24,0-0.48,0-0.721-0.04L382.439,397.372z M382.439,397.372c0.199-4.199,0.561-7.76,0.76-11.56c0.16,0,0.36-0.04,0.641-0.04
		c3.799,0,5.6,3.16,5.6,6.439c0,5.24-3.08,7.32-6.439,7.32c-0.24,0-0.48,0-0.721-0.04L382.439,397.372z M382.439,397.372
		c0.199-4.199,0.561-7.76,0.76-11.56c0.16,0,0.36-0.04,0.641-0.04c3.799,0,5.6,3.16,5.6,6.439c0,5.24-3.08,7.32-6.439,7.32
		c-0.24,0-0.48,0-0.721-0.04L382.439,397.372z M382.199,401.093c0.24,0.04,0.52,0.04,0.76,0.04c5.08,0,8.4-3.881,8.4-8.641
		c0-4.84-2.76-8.399-7.88-8.399h-0.399c-0.201-0.2-0.601-0.32-0.961-0.32c-0.4,0-0.76,0.16-0.8,0.52
		c-2.601,0.561-4.88,2.16-4.88,4.601c0,0.84,0.48,1.16,1,1.16c0.48,0,0.96-0.28,1.04-0.721c0.36-1.96,1.44-2.8,2.72-3.199
		c-0.199,3.359-0.52,6.399-0.8,11.76 M374.199,386.812c0.4,0.479,0.68,1.04,0.84,1.4c-0.279,0.199-0.52,0.279-0.68,0.279
		c-0.32,0-0.48-0.24-0.48-0.6C373.879,387.612,374,387.213,374.199,386.812 M372.76,389.933c0.359,0.279,0.72,0.359,1.119,0.359
		c0.721,0,1.4-0.319,1.801-0.64c0.279,0.84,0.4,1.76,0.4,2.68c0,3.32-1.721,6.641-4.681,6.641c-3.319,0-4.601-3.601-4.601-6.28
		c0-3.6,1.92-7.32,4.561-7.32c0.52,0,1.04,0.12,1.6,0.44c-0.479,0.439-0.76,1.439-0.76,2.4
		C372.199,388.973,372.359,389.652,372.76,389.933 M375.279,384.732l-0.12-0.04l-0.44-0.6c-0.119-0.2-0.319-0.28-0.52-0.28
		c-0.16,0-0.359,0.08-0.48,0.24c-0.84-0.32-1.6-0.44-2.279-0.44c-1.6,0-2.801,0.72-3.721,1.64c-2.52,2.601-2.56,5.2-2.56,7.561
		c0,5.399,3.28,8.28,5.88,8.28c4,0,6.801-3.32,6.801-8.601c0-1.28-0.201-2.479-0.521-3.52c0.601-0.4,1.84-1.28,1.84-2.08
		c0-0.32-0.2-0.561-0.521-0.561c-0.52,0-1.399,0.521-2,0.801C376.159,386.213,375.399,384.973,375.279,384.732 M360.121,386.812
		c0.399,0.479,0.68,1.04,0.84,1.4c-0.281,0.199-0.521,0.279-0.681,0.279c-0.319,0-0.479-0.24-0.479-0.6
		C359.801,387.612,359.92,387.213,360.121,386.812 M358.68,389.933c0.361,0.279,0.721,0.359,1.121,0.359
		c0.72,0,1.399-0.319,1.8-0.64c0.28,0.84,0.399,1.76,0.399,2.68c0,3.32-1.72,6.641-4.68,6.641c-3.32,0-4.6-3.601-4.6-6.28
		c0-3.6,1.92-7.32,4.56-7.32c0.521,0,1.04,0.12,1.601,0.44c-0.48,0.439-0.76,1.439-0.76,2.4
		C358.121,388.973,358.28,389.652,358.68,389.933 M361.2,384.732l-0.12-0.04l-0.439-0.6c-0.12-0.2-0.32-0.28-0.52-0.28
		c-0.16,0-0.361,0.08-0.48,0.24c-0.84-0.32-1.6-0.44-2.28-0.44c-1.601,0-2.8,0.72-3.72,1.64c-2.52,2.601-2.561,5.2-2.561,7.561
		c0,5.399,3.28,8.28,5.881,8.28c4,0,6.799-3.32,6.799-8.601c0-1.28-0.199-2.479-0.52-3.52c0.6-0.4,1.84-1.28,1.84-2.08
		c0-0.32-0.199-0.561-0.52-0.561c-0.52,0-1.4,0.521-2,0.801C362.08,386.213,361.32,384.973,361.2,384.732 M350.377,358.225
		c0.365,0.964,0.6,2.253,0.703,3.867c0.104,1.614,0.098,3.516-0.019,5.702c-0.117,2.188-0.358,4.552-0.724,7.091
		c-0.364,2.539-0.858,5.194-1.483,7.969c-0.625,2.772-1.367,5.553-2.228,8.34c-0.754-2.787-1.322-5.586-1.699-8.399
		c-0.377-2.812-0.604-5.514-0.684-8.104c-0.078-2.591-0.013-5.006,0.196-7.246c0.208-2.24,0.526-4.173,0.957-5.801
		c0.429-1.627,0.95-2.892,1.562-3.789c0.612-0.899,1.283-1.295,2.012-1.192C349.543,356.74,350.012,357.262,350.377,358.225
		 M382.199,401.093c0.24,0.04,0.52,0.04,0.76,0.04c5.08,0,8.4-3.881,8.4-8.641c0-4.84-2.76-8.399-7.88-8.399h-0.399
		c-0.201-0.2-0.601-0.32-0.961-0.32c-0.4,0-0.76,0.16-0.8,0.52c-2.601,0.561-4.88,2.16-4.88,4.601c0,0.84,0.48,1.16,1,1.16
		c0.48,0,0.96-0.28,1.04-0.721c0.36-1.96,1.44-2.8,2.72-3.199c-0.199,3.359-0.52,6.399-0.8,11.76 M337.769,389.252
		c-1.601,2.48-4.16,4.32-5.72,5.2c-0.041-0.359-0.08-0.72-0.08-1.04c0-4.52,3.72-8.08,5.52-8.08c0.6,0,1,0.36,1,1.2
		C338.488,387.173,338.289,388.053,337.769,389.252 M339.328,390.173c0.521-1.12,0.721-2.24,0.721-3.16c0-2.561-1.16-3.44-2.84-3.44
		c-4.32,0-7.121,5.32-7.121,9.92c0,4.641,2.601,7.561,6.641,7.561c2.88,0,6.84-2.721,6.84-4.92c0-0.44-0.24-0.801-0.52-0.801
		c-0.16,0-0.36,0.12-0.561,0.36c-1.4,1.96-3.279,3.48-5.96,3.48c-1.64,0-3.04-1.08-3.76-2.4l-0.16-0.32
		C333.969,395.772,337.729,393.572,339.328,390.173 M327.209,386.732c0-0.84,0.4-0.84,0.801-1c-0.041,0.92-0.16,1.76-0.32,2.6
		C327.409,387.853,327.25,387.292,327.209,386.732 M316.77,386.093c0.279,2.68,3.4,12.279,5.199,14.359
		c0.4,0.48,0.801,0.641,1.201,0.641c1.879,0,4.64-5.641,5.719-9.92c0.16,0.079,0.361,0.119,0.521,0.119c1.24,0,2.32-1.56,2.32-2.439
		c0-0.4-0.24-0.68-0.479-0.68c-0.48,0-0.761,1.279-1.801,1.279h-0.199c0.239-1.319,0.359-2.68,0.359-4.08
		c0-0.88-0.84-1.279-1.52-1.279c-2.041,0-2.48,1.72-2.48,2.88c0,1.359,0.88,2.56,1.68,3.279c-1.24,4.48-3.52,8.08-3.92,8.4
		c-0.64,0-2.48-4.08-3.4-8.16c-0.799-3.68-0.76-6.24-2.159-6.24c-0.521,0-1.08,0.48-1.08,1.48
		C316.729,385.853,316.729,385.973,316.77,386.093 M305.688,399.292c-0.52-0.159-0.68-0.88-0.68-1.64c0-1,0.24-2.16,0.36-2.56
		c0.16-1.16,0.96-3.761,2.8-3.761c1.44,0,2.84,2.801,3.44,4.601c-0.96,1.76-3.56,3.479-5.24,3.479
		C306.128,399.412,305.888,399.372,305.688,399.292 M305.128,387.492c1-0.88,2.52-1.88,3.959-1.88c2.16,0,4,3.04,4,6.12
		c0,0.8-0.119,1.56-0.319,2.28c-0.681-2.12-2.44-4.48-4.72-4.48c-3.92,0-4.72,6.24-4.72,7.92c0,1.92,0.68,3.681,3.16,3.681
		c2.2,0,4.6-1.48,5.84-3.16c0.44,1.76,1.28,2.84,2.68,2.84c1,0,1.48-0.72,1.48-1.28c0-0.399-0.279-0.76-0.76-0.76
		c-0.16,0-0.32,0.04-0.48,0.04c-0.92,0-1.359-1.36-1.6-2.2l0.08-0.2c0.52-1.279,0.96-3.16,0.96-5.12c0-4.04-2.32-7.64-5.479-7.64
		c-1.761,0-5.4,1.72-5.4,3.561c0,0.359,0.2,0.6,0.56,0.6C304.568,387.812,304.849,387.732,305.128,387.492 M290.101,387.824
		c0.28-2.84,0.68-4.88,0.84-6.399c0,0,0.72-0.601,0.72-1.36c0,0.04,0.04-1.16-1.36-1.16c-0.36,0-0.76,0.24-0.96,1.12
		c-0.28,1.16-0.8,4.24-1.12,7.84c-1.48,0.08-2.72,0.12-3.44,0.12c-0.36,0-0.52,0.32-0.52,0.64c0,0.44,0.28,0.96,0.72,0.96l3.08-0.04
		c2.571,65.046,51.13,28.062,58.333,8.095c14.766,47.037,36.419,17.974,35.806,3.454c0.24,0.04,0.52,0.04,0.76,0.04
		c5.08,0,8.4-3.881,8.4-8.641c0-4.84-2.76-8.399-7.88-8.399h-0.399c-0.201-0.2-0.601-0.32-0.961-0.32c-0.4,0-0.76,0.16-0.8,0.52
		c-2.601,0.561-4.88,2.16-4.88,4.601c0,0.84,0.48,1.16,1,1.16c0.48,0,0.96-0.28,1.04-0.721c0.36-1.96,1.44-2.8,2.72-3.199
		c-0.199,3.359-0.52,6.399-0.8,11.76l-0.138,1.988c1.984,12.33-18.961,44.369-32.424-5.016c0.547-1.562,1.101-3.334,1.66-5.312
		c0.561-1.979,1.088-4.069,1.582-6.271c0.495-2.2,0.944-4.446,1.348-6.738c0.404-2.291,0.709-4.512,0.918-6.659
		c0.209-2.148,0.312-4.174,0.312-6.074c0-1.901-0.156-3.568-0.468-5c-0.313-1.433-0.795-2.565-1.446-3.399
		c-0.65-0.833-1.51-1.262-2.578-1.289c-1.354-0.024-2.5,0.386-3.437,1.231c-0.938,0.846-1.706,1.999-2.306,3.457
		c-0.599,1.459-1.041,3.164-1.328,5.117c-0.286,1.953-0.448,4.022-0.487,6.211c-0.039,2.187,0.032,4.439,0.215,6.758
		c0.181,2.318,0.435,4.57,0.761,6.758s0.709,4.245,1.153,6.171c0.442,1.928,0.925,3.608,1.445,5.04
		c2.512,7.434-50.016,65.11-55.242-5.321c0,0,4.988-1.172,5.628-1.571c-0.6,5.88-0.72,10.6-0.72,12.319c0,0.681,0.48,1.04,0.96,1.04
		c0.56,0,1.04-0.399,1.04-1.239v-0.48c0-2.12,0.32-9.04,0.48-9.92c0.32-1.96,2.36-4.68,4.28-4.68c1.04,0,1.36,0.6,1.36,1.279
		c0,2.12-1.56,2-1.56,2.761c0,0.56,0.48,1.279,1.2,1.279c0.96,0,2-1.8,2-4c0-1.68-0.68-3-2.64-3c-1.76,0-3.56,1.16-4.48,3.36
		c0-0.04,0.16-1,0.16-1.68c0-0.521-0.16-0.96-0.76-0.96c-0.32,0-0.64,0.199-0.84,0.64l-0.08,0.24
		C295.168,386.893,291.22,387.784,290.101,387.824c0.28-2.84,0.68-4.88,0.84-6.399c0,0,0.72-0.601,0.72-1.36
		c0,0.04,0.04-1.16-1.36-1.16c-0.36,0-0.76,0.24-0.96,1.12c-0.28,1.16-0.8,4.24-1.12,7.84c-1.48,0.08-2.72,0.12-3.44,0.12
		c-0.36,0-0.52,0.32-0.52,0.64c0,0.44,0.28,0.96,0.72,0.96l3.08-0.04c2.571,65.046,51.13,28.062,58.333,8.095
		c14.766,47.037,36.419,17.974,35.806,3.454c0.24,0.04,0.52,0.04,0.76,0.04c5.08,0,8.4-3.881,8.4-8.641
		c0-4.84-2.76-8.399-7.88-8.399h-0.399c-0.201-0.2-0.601-0.32-0.961-0.32c-0.4,0-0.76,0.16-0.8,0.52
		c-2.601,0.561-4.88,2.16-4.88,4.601c0,0.84,0.48,1.16,1,1.16c0.48,0,0.96-0.28,1.04-0.721c0.36-1.96,1.44-2.8,2.72-3.199
		c-0.199,3.359-0.52,6.399-0.8,11.76l-0.138,1.988c1.984,12.33-18.961,44.369-32.424-5.016c0.547-1.562,1.101-3.334,1.66-5.312
		c0.561-1.979,1.088-4.069,1.582-6.271c0.495-2.2,0.944-4.446,1.348-6.738c0.404-2.291,0.709-4.512,0.918-6.659
		c0.209-2.148,0.312-4.174,0.312-6.074c0-1.901-0.156-3.568-0.468-5c-0.313-1.433-0.795-2.565-1.446-3.399
		c-0.65-0.833-1.51-1.262-2.578-1.289c-1.354-0.024-2.5,0.386-3.437,1.231c-0.938,0.846-1.706,1.999-2.306,3.457
		c-0.599,1.459-1.041,3.164-1.328,5.117c-0.286,1.953-0.448,4.022-0.487,6.211c-0.039,2.187,0.032,4.439,0.215,6.758
		c0.181,2.318,0.435,4.57,0.761,6.758s0.709,4.245,1.153,6.171c0.442,1.928,0.925,3.608,1.445,5.04
		c2.512,7.434-50.016,65.11-55.242-5.321 M374.199,386.812c0.4,0.479,0.68,1.04,0.84,1.4c-0.279,0.199-0.52,0.279-0.68,0.279
		c-0.32,0-0.48-0.24-0.48-0.6C373.879,387.612,374,387.213,374.199,386.812 M372.76,389.933c0.359,0.279,0.72,0.359,1.119,0.359
		c0.721,0,1.4-0.319,1.801-0.64c0.279,0.84,0.4,1.76,0.4,2.68c0,3.32-1.721,6.641-4.681,6.641c-3.319,0-4.601-3.601-4.601-6.28
		c0-3.6,1.92-7.32,4.561-7.32c0.52,0,1.04,0.12,1.6,0.44c-0.479,0.439-0.76,1.439-0.76,2.4
		C372.199,388.973,372.359,389.652,372.76,389.933 M375.279,384.732l-0.12-0.04l-0.44-0.6c-0.119-0.2-0.319-0.28-0.52-0.28
		c-0.16,0-0.359,0.08-0.48,0.24c-0.84-0.32-1.6-0.44-2.279-0.44c-1.6,0-2.801,0.72-3.721,1.64c-2.52,2.601-2.56,5.2-2.56,7.561
		c0,5.399,3.28,8.28,5.88,8.28c4,0,6.801-3.32,6.801-8.601c0-1.28-0.201-2.479-0.521-3.52c0.601-0.4,1.84-1.28,1.84-2.08
		c0-0.32-0.2-0.561-0.521-0.561c-0.52,0-1.399,0.521-2,0.801C376.159,386.213,375.399,384.973,375.279,384.732 M360.121,386.812
		c0.399,0.479,0.68,1.04,0.84,1.4c-0.281,0.199-0.521,0.279-0.681,0.279c-0.319,0-0.479-0.24-0.479-0.6
		C359.801,387.612,359.92,387.213,360.121,386.812 M358.68,389.933c0.361,0.279,0.721,0.359,1.121,0.359
		c0.72,0,1.399-0.319,1.8-0.64c0.28,0.84,0.399,1.76,0.399,2.68c0,3.32-1.72,6.641-4.68,6.641c-3.32,0-4.6-3.601-4.6-6.28
		c0-3.6,1.92-7.32,4.56-7.32c0.521,0,1.04,0.12,1.601,0.44c-0.48,0.439-0.76,1.439-0.76,2.4
		C358.121,388.973,358.28,389.652,358.68,389.933 M361.2,384.732l-0.12-0.04l-0.439-0.6c-0.12-0.2-0.32-0.28-0.52-0.28
		c-0.16,0-0.361,0.08-0.48,0.24c-0.84-0.32-1.6-0.44-2.28-0.44c-1.601,0-2.8,0.72-3.72,1.64c-2.52,2.601-2.561,5.2-2.561,7.561
		c0,5.399,3.28,8.28,5.881,8.28c4,0,6.799-3.32,6.799-8.601c0-1.28-0.199-2.479-0.52-3.52c0.6-0.4,1.84-1.28,1.84-2.08
		c0-0.32-0.199-0.561-0.52-0.561c-0.52,0-1.4,0.521-2,0.801C362.08,386.213,361.32,384.973,361.2,384.732 M350.377,358.225
		c0.365,0.964,0.6,2.253,0.703,3.867c0.104,1.614,0.098,3.516-0.019,5.702c-0.117,2.188-0.358,4.552-0.724,7.091
		c-0.364,2.539-0.858,5.194-1.483,7.969c-0.625,2.772-1.367,5.553-2.228,8.34c-0.754-2.787-1.322-5.586-1.699-8.399
		c-0.377-2.812-0.604-5.514-0.684-8.104c-0.078-2.591-0.013-5.006,0.196-7.246c0.208-2.24,0.526-4.173,0.957-5.801
		c0.429-1.627,0.95-2.892,1.562-3.789c0.612-0.899,1.283-1.295,2.012-1.192C349.543,356.74,350.012,357.262,350.377,358.225
		 M337.769,389.252c-1.601,2.48-4.16,4.32-5.72,5.2c-0.041-0.359-0.08-0.72-0.08-1.04c0-4.52,3.72-8.08,5.52-8.08
		c0.6,0,1,0.36,1,1.2C338.488,387.173,338.289,388.053,337.769,389.252 M339.328,390.173c0.521-1.12,0.721-2.24,0.721-3.16
		c0-2.561-1.16-3.44-2.84-3.44c-4.32,0-7.121,5.32-7.121,9.92c0,4.641,2.601,7.561,6.641,7.561c2.88,0,6.84-2.721,6.84-4.92
		c0-0.44-0.24-0.801-0.52-0.801c-0.16,0-0.36,0.12-0.561,0.36c-1.4,1.96-3.279,3.48-5.96,3.48c-1.64,0-3.04-1.08-3.76-2.4
		l-0.16-0.32C333.969,395.772,337.729,393.572,339.328,390.173 M327.209,386.732c0-0.84,0.4-0.84,0.801-1
		c-0.041,0.92-0.16,1.76-0.32,2.6C327.409,387.853,327.25,387.292,327.209,386.732 M316.77,386.093
		c0.279,2.68,3.4,12.279,5.199,14.359c0.4,0.48,0.801,0.641,1.201,0.641c1.879,0,4.64-5.641,5.719-9.92
		c0.16,0.079,0.361,0.119,0.521,0.119c1.24,0,2.32-1.56,2.32-2.439c0-0.4-0.24-0.68-0.479-0.68c-0.48,0-0.761,1.279-1.801,1.279
		h-0.199c0.239-1.319,0.359-2.68,0.359-4.08c0-0.88-0.84-1.279-1.52-1.279c-2.041,0-2.48,1.72-2.48,2.88
		c0,1.359,0.88,2.56,1.68,3.279c-1.24,4.48-3.52,8.08-3.92,8.4c-0.64,0-2.48-4.08-3.4-8.16c-0.799-3.68-0.76-6.24-2.159-6.24
		c-0.521,0-1.08,0.48-1.08,1.48C316.729,385.853,316.729,385.973,316.77,386.093 M305.688,399.292c-0.52-0.159-0.68-0.88-0.68-1.64
		c0-1,0.24-2.16,0.36-2.56c0.16-1.16,0.96-3.761,2.8-3.761c1.44,0,2.84,2.801,3.44,4.601c-0.96,1.76-3.56,3.479-5.24,3.479
		C306.128,399.412,305.888,399.372,305.688,399.292 M305.128,387.492c1-0.88,2.52-1.88,3.959-1.88c2.16,0,4,3.04,4,6.12
		c0,0.8-0.119,1.56-0.319,2.28c-0.681-2.12-2.44-4.48-4.72-4.48c-3.92,0-4.72,6.24-4.72,7.92c0,1.92,0.68,3.681,3.16,3.681
		c2.2,0,4.6-1.48,5.84-3.16c0.44,1.76,1.28,2.84,2.68,2.84c1,0,1.48-0.72,1.48-1.28c0-0.399-0.279-0.76-0.76-0.76
		c-0.16,0-0.32,0.04-0.48,0.04c-0.92,0-1.359-1.36-1.6-2.2l0.08-0.2c0.52-1.279,0.96-3.16,0.96-5.12c0-4.04-2.32-7.64-5.479-7.64
		c-1.761,0-5.4,1.72-5.4,3.561c0,0.359,0.2,0.6,0.56,0.6C304.568,387.812,304.849,387.732,305.128,387.492 M295.568,387.973
		c-0.6,5.88-0.72,10.6-0.72,12.319c0,0.681,0.48,1.04,0.96,1.04c0.56,0,1.04-0.399,1.04-1.239v-0.48c0-2.12,0.32-9.04,0.48-9.92
		c0.32-1.96,2.36-4.68,4.28-4.68c1.04,0,1.36,0.6,1.36,1.279c0,2.12-1.56,2-1.56,2.761c0,0.56,0.48,1.279,1.2,1.279
		c0.96,0,2-1.8,2-4c0-1.68-0.68-3-2.64-3c-1.76,0-3.56,1.16-4.48,3.36c0-0.04,0.16-1,0.16-1.68c0-0.521-0.16-0.96-0.76-0.96
		c-0.32,0-0.64,0.199-0.84,0.64l-0.08,0.24 M374.199,386.812c0.4,0.479,0.68,1.04,0.84,1.4c-0.279,0.199-0.52,0.279-0.68,0.279
		c-0.32,0-0.48-0.24-0.48-0.6C373.879,387.612,374,387.213,374.199,386.812 M372.76,389.933c0.359,0.279,0.72,0.359,1.119,0.359
		c0.721,0,1.4-0.319,1.801-0.64c0.279,0.84,0.4,1.76,0.4,2.68c0,3.32-1.721,6.641-4.681,6.641c-3.319,0-4.601-3.601-4.601-6.28
		c0-3.6,1.92-7.32,4.561-7.32c0.52,0,1.04,0.12,1.6,0.44c-0.479,0.439-0.76,1.439-0.76,2.4
		C372.199,388.973,372.359,389.652,372.76,389.933 M375.279,384.732l-0.12-0.04l-0.44-0.6c-0.119-0.2-0.319-0.28-0.52-0.28
		c-0.16,0-0.359,0.08-0.48,0.24c-0.84-0.32-1.6-0.44-2.279-0.44c-1.6,0-2.801,0.72-3.721,1.64c-2.52,2.601-2.56,5.2-2.56,7.561
		c0,5.399,3.28,8.28,5.88,8.28c4,0,6.801-3.32,6.801-8.601c0-1.28-0.201-2.479-0.521-3.52c0.601-0.4,1.84-1.28,1.84-2.08
		c0-0.32-0.2-0.561-0.521-0.561c-0.52,0-1.399,0.521-2,0.801C376.159,386.213,375.399,384.973,375.279,384.732 M360.121,386.812
		c0.399,0.479,0.68,1.04,0.84,1.4c-0.281,0.199-0.521,0.279-0.681,0.279c-0.319,0-0.479-0.24-0.479-0.6
		C359.801,387.612,359.92,387.213,360.121,386.812 M358.68,389.933c0.361,0.279,0.721,0.359,1.121,0.359
		c0.72,0,1.399-0.319,1.8-0.64c0.28,0.84,0.399,1.76,0.399,2.68c0,3.32-1.72,6.641-4.68,6.641c-3.32,0-4.6-3.601-4.6-6.28
		c0-3.6,1.92-7.32,4.56-7.32c0.521,0,1.04,0.12,1.601,0.44c-0.48,0.439-0.76,1.439-0.76,2.4
		C358.121,388.973,358.28,389.652,358.68,389.933 M361.2,384.732l-0.12-0.04l-0.439-0.6c-0.12-0.2-0.32-0.28-0.52-0.28
		c-0.16,0-0.361,0.08-0.48,0.24c-0.84-0.32-1.6-0.44-2.28-0.44c-1.601,0-2.8,0.72-3.72,1.64c-2.52,2.601-2.561,5.2-2.561,7.561
		c0,5.399,3.28,8.28,5.881,8.28c4,0,6.799-3.32,6.799-8.601c0-1.28-0.199-2.479-0.52-3.52c0.6-0.4,1.84-1.28,1.84-2.08
		c0-0.32-0.199-0.561-0.52-0.561c-0.52,0-1.4,0.521-2,0.801C362.08,386.213,361.32,384.973,361.2,384.732 M350.377,358.225
		c0.365,0.964,0.6,2.253,0.703,3.867c0.104,1.614,0.098,3.516-0.019,5.702c-0.117,2.188-0.358,4.552-0.724,7.091
		c-0.364,2.539-0.858,5.194-1.483,7.969c-0.625,2.772-1.367,5.553-2.228,8.34c-0.754-2.787-1.322-5.586-1.699-8.399
		c-0.377-2.812-0.604-5.514-0.684-8.104c-0.078-2.591-0.013-5.006,0.196-7.246c0.208-2.24,0.526-4.173,0.957-5.801
		c0.429-1.627,0.95-2.892,1.562-3.789c0.612-0.899,1.283-1.295,2.012-1.192C349.543,356.74,350.012,357.262,350.377,358.225
		 M337.769,389.252c-1.601,2.48-4.16,4.32-5.72,5.2c-0.041-0.359-0.08-0.72-0.08-1.04c0-4.52,3.72-8.08,5.52-8.08
		c0.6,0,1,0.36,1,1.2C338.488,387.173,338.289,388.053,337.769,389.252 M339.328,390.173c0.521-1.12,0.721-2.24,0.721-3.16
		c0-2.561-1.16-3.44-2.84-3.44c-4.32,0-7.121,5.32-7.121,9.92c0,4.641,2.601,7.561,6.641,7.561c2.88,0,6.84-2.721,6.84-4.92
		c0-0.44-0.24-0.801-0.52-0.801c-0.16,0-0.36,0.12-0.561,0.36c-1.4,1.96-3.279,3.48-5.96,3.48c-1.64,0-3.04-1.08-3.76-2.4
		l-0.16-0.32C333.969,395.772,337.729,393.572,339.328,390.173 M327.209,386.732c0-0.84,0.4-0.84,0.801-1
		c-0.041,0.92-0.16,1.76-0.32,2.6C327.409,387.853,327.25,387.292,327.209,386.732 M316.77,386.093
		c0.279,2.68,3.4,12.279,5.199,14.359c0.4,0.48,0.801,0.641,1.201,0.641c1.879,0,4.64-5.641,5.719-9.92
		c0.16,0.079,0.361,0.119,0.521,0.119c1.24,0,2.32-1.56,2.32-2.439c0-0.4-0.24-0.68-0.479-0.68c-0.48,0-0.761,1.279-1.801,1.279
		h-0.199c0.239-1.319,0.359-2.68,0.359-4.08c0-0.88-0.84-1.279-1.52-1.279c-2.041,0-2.48,1.72-2.48,2.88
		c0,1.359,0.88,2.56,1.68,3.279c-1.24,4.48-3.52,8.08-3.92,8.4c-0.64,0-2.48-4.08-3.4-8.16c-0.799-3.68-0.76-6.24-2.159-6.24
		c-0.521,0-1.08,0.48-1.08,1.48C316.729,385.853,316.729,385.973,316.77,386.093 M305.688,399.292c-0.52-0.159-0.68-0.88-0.68-1.64
		c0-1,0.24-2.16,0.36-2.56c0.16-1.16,0.96-3.761,2.8-3.761c1.44,0,2.84,2.801,3.44,4.601c-0.96,1.76-3.56,3.479-5.24,3.479
		C306.128,399.412,305.888,399.372,305.688,399.292 M305.128,387.492c1-0.88,2.52-1.88,3.959-1.88c2.16,0,4,3.04,4,6.12
		c0,0.8-0.119,1.56-0.319,2.28c-0.681-2.12-2.44-4.48-4.72-4.48c-3.92,0-4.72,6.24-4.72,7.92c0,1.92,0.68,3.681,3.16,3.681
		c2.2,0,4.6-1.48,5.84-3.16c0.44,1.76,1.28,2.84,2.68,2.84c1,0,1.48-0.72,1.48-1.28c0-0.399-0.279-0.76-0.76-0.76
		c-0.16,0-0.32,0.04-0.48,0.04c-0.92,0-1.359-1.36-1.6-2.2l0.08-0.2c0.52-1.279,0.96-3.16,0.96-5.12c0-4.04-2.32-7.64-5.479-7.64
		c-1.761,0-5.4,1.72-5.4,3.561c0,0.359,0.2,0.6,0.56,0.6C304.568,387.812,304.849,387.732,305.128,387.492 M295.568,387.973
		c-0.6,5.88-0.72,10.6-0.72,12.319c0,0.681,0.48,1.04,0.96,1.04c0.56,0,1.04-0.399,1.04-1.239v-0.48c0-2.12,0.32-9.04,0.48-9.92
		c0.32-1.96,2.36-4.68,4.28-4.68c1.04,0,1.36,0.6,1.36,1.279c0,2.12-1.56,2-1.56,2.761c0,0.56,0.48,1.279,1.2,1.279
		c0.96,0,2-1.8,2-4c0-1.68-0.68-3-2.64-3c-1.76,0-3.56,1.16-4.48,3.36c0-0.04,0.16-1,0.16-1.68c0-0.521-0.16-0.96-0.76-0.96
		c-0.32,0-0.64,0.199-0.84,0.64l-0.08,0.24 M374.199,386.812c0.4,0.479,0.68,1.04,0.84,1.4c-0.279,0.199-0.52,0.279-0.68,0.279
		c-0.32,0-0.48-0.24-0.48-0.6C373.879,387.612,374,387.213,374.199,386.812 M372.76,389.933c0.359,0.279,0.72,0.359,1.119,0.359
		c0.721,0,1.4-0.319,1.801-0.64c0.279,0.84,0.4,1.76,0.4,2.68c0,3.32-1.721,6.641-4.681,6.641c-3.319,0-4.601-3.601-4.601-6.28
		c0-3.6,1.92-7.32,4.561-7.32c0.52,0,1.04,0.12,1.6,0.44c-0.479,0.439-0.76,1.439-0.76,2.4
		C372.199,388.973,372.359,389.652,372.76,389.933 M375.279,384.732l-0.12-0.04l-0.44-0.6c-0.119-0.2-0.319-0.28-0.52-0.28
		c-0.16,0-0.359,0.08-0.48,0.24c-0.84-0.32-1.6-0.44-2.279-0.44c-1.6,0-2.801,0.72-3.721,1.64c-2.52,2.601-2.56,5.2-2.56,7.561
		c0,5.399,3.28,8.28,5.88,8.28c4,0,6.801-3.32,6.801-8.601c0-1.28-0.201-2.479-0.521-3.52c0.601-0.4,1.84-1.28,1.84-2.08
		c0-0.32-0.2-0.561-0.521-0.561c-0.52,0-1.399,0.521-2,0.801C376.159,386.213,375.399,384.973,375.279,384.732 M360.121,386.812
		c0.399,0.479,0.68,1.04,0.84,1.4c-0.281,0.199-0.521,0.279-0.681,0.279c-0.319,0-0.479-0.24-0.479-0.6
		C359.801,387.612,359.92,387.213,360.121,386.812 M358.68,389.933c0.361,0.279,0.721,0.359,1.121,0.359
		c0.72,0,1.399-0.319,1.8-0.64c0.28,0.84,0.399,1.76,0.399,2.68c0,3.32-1.72,6.641-4.68,6.641c-3.32,0-4.6-3.601-4.6-6.28
		c0-3.6,1.92-7.32,4.56-7.32c0.521,0,1.04,0.12,1.601,0.44c-0.48,0.439-0.76,1.439-0.76,2.4
		C358.121,388.973,358.28,389.652,358.68,389.933 M361.2,384.732l-0.12-0.04l-0.439-0.6c-0.12-0.2-0.32-0.28-0.52-0.28
		c-0.16,0-0.361,0.08-0.48,0.24c-0.84-0.32-1.6-0.44-2.28-0.44c-1.601,0-2.8,0.72-3.72,1.64c-2.52,2.601-2.561,5.2-2.561,7.561
		c0,5.399,3.28,8.28,5.881,8.28c4,0,6.799-3.32,6.799-8.601c0-1.28-0.199-2.479-0.52-3.52c0.6-0.4,1.84-1.28,1.84-2.08
		c0-0.32-0.199-0.561-0.52-0.561c-0.52,0-1.4,0.521-2,0.801C362.08,386.213,361.32,384.973,361.2,384.732 M350.377,358.225
		c0.365,0.964,0.6,2.253,0.703,3.867c0.104,1.614,0.098,3.516-0.019,5.702c-0.117,2.188-0.358,4.552-0.724,7.091
		c-0.364,2.539-0.858,5.194-1.483,7.969c-0.625,2.772-1.367,5.553-2.228,8.34c-0.754-2.787-1.322-5.586-1.699-8.399
		c-0.377-2.812-0.604-5.514-0.684-8.104c-0.078-2.591-0.013-5.006,0.196-7.246c0.208-2.24,0.526-4.173,0.957-5.801
		c0.429-1.627,0.95-2.892,1.562-3.789c0.612-0.899,1.283-1.295,2.012-1.192C349.543,356.74,350.012,357.262,350.377,358.225
		 M337.769,389.252c-1.601,2.48-4.16,4.32-5.72,5.2c-0.041-0.359-0.08-0.72-0.08-1.04c0-4.52,3.72-8.08,5.52-8.08
		c0.6,0,1,0.36,1,1.2C338.488,387.173,338.289,388.053,337.769,389.252 M339.328,390.173c0.521-1.12,0.721-2.24,0.721-3.16
		c0-2.561-1.16-3.44-2.84-3.44c-4.32,0-7.121,5.32-7.121,9.92c0,4.641,2.601,7.561,6.641,7.561c2.88,0,6.84-2.721,6.84-4.92
		c0-0.44-0.24-0.801-0.52-0.801c-0.16,0-0.36,0.12-0.561,0.36c-1.4,1.96-3.279,3.48-5.96,3.48c-1.64,0-3.04-1.08-3.76-2.4
		l-0.16-0.32C333.969,395.772,337.729,393.572,339.328,390.173 M327.209,386.732c0-0.84,0.4-0.84,0.801-1
		c-0.041,0.92-0.16,1.76-0.32,2.6C327.409,387.853,327.25,387.292,327.209,386.732 M316.77,386.093
		c0.279,2.68,3.4,12.279,5.199,14.359c0.4,0.48,0.801,0.641,1.201,0.641c1.879,0,4.64-5.641,5.719-9.92
		c0.16,0.079,0.361,0.119,0.521,0.119c1.24,0,2.32-1.56,2.32-2.439c0-0.4-0.24-0.68-0.479-0.68c-0.48,0-0.761,1.279-1.801,1.279
		h-0.199c0.239-1.319,0.359-2.68,0.359-4.08c0-0.88-0.84-1.279-1.52-1.279c-2.041,0-2.48,1.72-2.48,2.88
		c0,1.359,0.88,2.56,1.68,3.279c-1.24,4.48-3.52,8.08-3.92,8.4c-0.64,0-2.48-4.08-3.4-8.16c-0.799-3.68-0.76-6.24-2.159-6.24
		c-0.521,0-1.08,0.48-1.08,1.48C316.729,385.853,316.729,385.973,316.77,386.093 M305.688,399.292c-0.52-0.159-0.68-0.88-0.68-1.64
		c0-1,0.24-2.16,0.36-2.56c0.16-1.16,0.96-3.761,2.8-3.761c1.44,0,2.84,2.801,3.44,4.601c-0.96,1.76-3.56,3.479-5.24,3.479
		C306.128,399.412,305.888,399.372,305.688,399.292 M305.128,387.492c1-0.88,2.52-1.88,3.959-1.88c2.16,0,4,3.04,4,6.12
		c0,0.8-0.119,1.56-0.319,2.28c-0.681-2.12-2.44-4.48-4.72-4.48c-3.92,0-4.72,6.24-4.72,7.92c0,1.92,0.68,3.681,3.16,3.681
		c2.2,0,4.6-1.48,5.84-3.16c0.44,1.76,1.28,2.84,2.68,2.84c1,0,1.48-0.72,1.48-1.28c0-0.399-0.279-0.76-0.76-0.76
		c-0.16,0-0.32,0.04-0.48,0.04c-0.92,0-1.359-1.36-1.6-2.2l0.08-0.2c0.52-1.279,0.96-3.16,0.96-5.12c0-4.04-2.32-7.64-5.479-7.64
		c-1.761,0-5.4,1.72-5.4,3.561c0,0.359,0.2,0.6,0.56,0.6C304.568,387.812,304.849,387.732,305.128,387.492 M295.568,387.973
		c-0.6,5.88-0.72,10.6-0.72,12.319c0,0.681,0.48,1.04,0.96,1.04c0.56,0,1.04-0.399,1.04-1.239v-0.48c0-2.12,0.32-9.04,0.48-9.92
		c0.32-1.96,2.36-4.68,4.28-4.68c1.04,0,1.36,0.6,1.36,1.279c0,2.12-1.56,2-1.56,2.761c0,0.56,0.48,1.279,1.2,1.279
		c0.96,0,2-1.8,2-4c0-1.68-0.68-3-2.64-3c-1.76,0-3.56,1.16-4.48,3.36c0-0.04,0.16-1,0.16-1.68c0-0.521-0.16-0.96-0.76-0.96
		c-0.32,0-0.64,0.199-0.84,0.64l-0.08,0.24 M382.439,397.372c0.199-4.199,0.561-7.76,0.76-11.56c0.16,0,0.36-0.04,0.641-0.04
		c3.799,0,5.6,3.16,5.6,6.439c0,5.24-3.08,7.32-6.439,7.32c-0.24,0-0.48,0-0.721-0.04L382.439,397.372z M382.439,397.372
		c0.199-4.199,0.561-7.76,0.76-11.56c0.16,0,0.36-0.04,0.641-0.04c3.799,0,5.6,3.16,5.6,6.439c0,5.24-3.08,7.32-6.439,7.32
		c-0.24,0-0.48,0-0.721-0.04L382.439,397.372z M382.439,397.372c0.199-4.199,0.561-7.76,0.76-11.56c0.16,0,0.36-0.04,0.641-0.04
		c3.799,0,5.6,3.16,5.6,6.439c0,5.24-3.08,7.32-6.439,7.32c-0.24,0-0.48,0-0.721-0.04L382.439,397.372z M382.439,397.372
		c0.199-4.199,0.561-7.76,0.76-11.56c0.16,0,0.36-0.04,0.641-0.04c3.799,0,5.6,3.16,5.6,6.439c0,5.24-3.08,7.32-6.439,7.32
		c-0.24,0-0.48,0-0.721-0.04L382.439,397.372z M382.199,401.093c0.24,0.04,0.52,0.04,0.76,0.04c5.08,0,8.4-3.881,8.4-8.641
		c0-4.84-2.76-8.399-7.88-8.399h-0.399c-0.201-0.2-0.601-0.32-0.961-0.32c-0.4,0-0.76,0.16-0.8,0.52
		c-2.601,0.561-4.88,2.16-4.88,4.601c0,0.84,0.48,1.16,1,1.16c0.48,0,0.96-0.28,1.04-0.721c0.36-1.96,1.44-2.8,2.72-3.199
		c-0.199,3.359-0.52,6.399-0.8,11.76 M374.199,386.812c0.4,0.479,0.68,1.04,0.84,1.4c-0.279,0.199-0.52,0.279-0.68,0.279
		c-0.32,0-0.48-0.24-0.48-0.6C373.879,387.612,374,387.213,374.199,386.812 M372.76,389.933c0.359,0.279,0.72,0.359,1.119,0.359
		c0.721,0,1.4-0.319,1.801-0.64c0.279,0.84,0.4,1.76,0.4,2.68c0,3.32-1.721,6.641-4.681,6.641c-3.319,0-4.601-3.601-4.601-6.28
		c0-3.6,1.92-7.32,4.561-7.32c0.52,0,1.04,0.12,1.6,0.44c-0.479,0.439-0.76,1.439-0.76,2.4
		C372.199,388.973,372.359,389.652,372.76,389.933 M375.279,384.732l-0.12-0.04l-0.44-0.6c-0.119-0.2-0.319-0.28-0.52-0.28
		c-0.16,0-0.359,0.08-0.48,0.24c-0.84-0.32-1.6-0.44-2.279-0.44c-1.6,0-2.801,0.72-3.721,1.64c-2.52,2.601-2.56,5.2-2.56,7.561
		c0,5.399,3.28,8.28,5.88,8.28c4,0,6.801-3.32,6.801-8.601c0-1.28-0.201-2.479-0.521-3.52c0.601-0.4,1.84-1.28,1.84-2.08
		c0-0.32-0.2-0.561-0.521-0.561c-0.52,0-1.399,0.521-2,0.801C376.159,386.213,375.399,384.973,375.279,384.732 M360.121,386.812
		c0.399,0.479,0.68,1.04,0.84,1.4c-0.281,0.199-0.521,0.279-0.681,0.279c-0.319,0-0.479-0.24-0.479-0.6
		C359.801,387.612,359.92,387.213,360.121,386.812 M358.68,389.933c0.361,0.279,0.721,0.359,1.121,0.359
		c0.72,0,1.399-0.319,1.8-0.64c0.28,0.84,0.399,1.76,0.399,2.68c0,3.32-1.72,6.641-4.68,6.641c-3.32,0-4.6-3.601-4.6-6.28
		c0-3.6,1.92-7.32,4.56-7.32c0.521,0,1.04,0.12,1.601,0.44c-0.48,0.439-0.76,1.439-0.76,2.4
		C358.121,388.973,358.28,389.652,358.68,389.933 M361.2,384.732l-0.12-0.04l-0.439-0.6c-0.12-0.2-0.32-0.28-0.52-0.28
		c-0.16,0-0.361,0.08-0.48,0.24c-0.84-0.32-1.6-0.44-2.28-0.44c-1.601,0-2.8,0.72-3.72,1.64c-2.52,2.601-2.561,5.2-2.561,7.561
		c0,5.399,3.28,8.28,5.881,8.28c4,0,6.799-3.32,6.799-8.601c0-1.28-0.199-2.479-0.52-3.52c0.6-0.4,1.84-1.28,1.84-2.08
		c0-0.32-0.199-0.561-0.52-0.561c-0.52,0-1.4,0.521-2,0.801C362.08,386.213,361.32,384.973,361.2,384.732 M350.377,358.225
		c0.365,0.964,0.6,2.253,0.703,3.867c0.104,1.614,0.098,3.516-0.019,5.702c-0.117,2.188-0.358,4.552-0.724,7.091
		c-0.364,2.539-0.858,5.194-1.483,7.969c-0.625,2.772-1.367,5.553-2.228,8.34c-0.754-2.787-1.322-5.586-1.699-8.399
		c-0.377-2.812-0.604-5.514-0.684-8.104c-0.078-2.591-0.013-5.006,0.196-7.246c0.208-2.24,0.526-4.173,0.957-5.801
		c0.429-1.627,0.95-2.892,1.562-3.789c0.612-0.899,1.283-1.295,2.012-1.192C349.543,356.74,350.012,357.262,350.377,358.225
		 M382.199,401.093c0.24,0.04,0.52,0.04,0.76,0.04c5.08,0,8.4-3.881,8.4-8.641c0-4.84-2.76-8.399-7.88-8.399h-0.399
		c-0.201-0.2-0.601-0.32-0.961-0.32c-0.4,0-0.76,0.16-0.8,0.52c-2.601,0.561-4.88,2.16-4.88,4.601c0,0.84,0.48,1.16,1,1.16
		c0.48,0,0.96-0.28,1.04-0.721c0.36-1.96,1.44-2.8,2.72-3.199c-0.199,3.359-0.52,6.399-0.8,11.76 M337.769,389.252
		c-1.601,2.48-4.16,4.32-5.72,5.2c-0.041-0.359-0.08-0.72-0.08-1.04c0-4.52,3.72-8.08,5.52-8.08c0.6,0,1,0.36,1,1.2
		C338.488,387.173,338.289,388.053,337.769,389.252 M339.328,390.173c0.521-1.12,0.721-2.24,0.721-3.16c0-2.561-1.16-3.44-2.84-3.44
		c-4.32,0-7.121,5.32-7.121,9.92c0,4.641,2.601,7.561,6.641,7.561c2.88,0,6.84-2.721,6.84-4.92c0-0.44-0.24-0.801-0.52-0.801
		c-0.16,0-0.36,0.12-0.561,0.36c-1.4,1.96-3.279,3.48-5.96,3.48c-1.64,0-3.04-1.08-3.76-2.4l-0.16-0.32
		C333.969,395.772,337.729,393.572,339.328,390.173 M327.209,386.732c0-0.84,0.4-0.84,0.801-1c-0.041,0.92-0.16,1.76-0.32,2.6
		C327.409,387.853,327.25,387.292,327.209,386.732 M316.77,386.093c0.279,2.68,3.4,12.279,5.199,14.359
		c0.4,0.48,0.801,0.641,1.201,0.641c1.879,0,4.64-5.641,5.719-9.92c0.16,0.079,0.361,0.119,0.521,0.119c1.24,0,2.32-1.56,2.32-2.439
		c0-0.4-0.24-0.68-0.479-0.68c-0.48,0-0.761,1.279-1.801,1.279h-0.199c0.239-1.319,0.359-2.68,0.359-4.08
		c0-0.88-0.84-1.279-1.52-1.279c-2.041,0-2.48,1.72-2.48,2.88c0,1.359,0.88,2.56,1.68,3.279c-1.24,4.48-3.52,8.08-3.92,8.4
		c-0.64,0-2.48-4.08-3.4-8.16c-0.799-3.68-0.76-6.24-2.159-6.24c-0.521,0-1.08,0.48-1.08,1.48
		C316.729,385.853,316.729,385.973,316.77,386.093 M305.688,399.292c-0.52-0.159-0.68-0.88-0.68-1.64c0-1,0.24-2.16,0.36-2.56
		c0.16-1.16,0.96-3.761,2.8-3.761c1.44,0,2.84,2.801,3.44,4.601c-0.96,1.76-3.56,3.479-5.24,3.479
		C306.128,399.412,305.888,399.372,305.688,399.292 M305.128,387.492c1-0.88,2.52-1.88,3.959-1.88c2.16,0,4,3.04,4,6.12
		c0,0.8-0.119,1.56-0.319,2.28c-0.681-2.12-2.44-4.48-4.72-4.48c-3.92,0-4.72,6.24-4.72,7.92c0,1.92,0.68,3.681,3.16,3.681
		c2.2,0,4.6-1.48,5.84-3.16c0.44,1.76,1.28,2.84,2.68,2.84c1,0,1.48-0.72,1.48-1.28c0-0.399-0.279-0.76-0.76-0.76
		c-0.16,0-0.32,0.04-0.48,0.04c-0.92,0-1.359-1.36-1.6-2.2l0.08-0.2c0.52-1.279,0.96-3.16,0.96-5.12c0-4.04-2.32-7.64-5.479-7.64
		c-1.761,0-5.4,1.72-5.4,3.561c0,0.359,0.2,0.6,0.56,0.6C304.568,387.812,304.849,387.732,305.128,387.492 M374.199,386.812
		c0.4,0.479,0.68,1.04,0.84,1.4c-0.279,0.199-0.52,0.279-0.68,0.279c-0.32,0-0.48-0.24-0.48-0.6
		C373.879,387.612,374,387.213,374.199,386.812 M372.76,389.933c0.359,0.279,0.72,0.359,1.119,0.359c0.721,0,1.4-0.319,1.801-0.64
		c0.279,0.84,0.4,1.76,0.4,2.68c0,3.32-1.721,6.641-4.681,6.641c-3.319,0-4.601-3.601-4.601-6.28c0-3.6,1.92-7.32,4.561-7.32
		c0.52,0,1.04,0.12,1.6,0.44c-0.479,0.439-0.76,1.439-0.76,2.4C372.199,388.973,372.359,389.652,372.76,389.933 M375.279,384.732
		l-0.12-0.04l-0.44-0.6c-0.119-0.2-0.319-0.28-0.52-0.28c-0.16,0-0.359,0.08-0.48,0.24c-0.84-0.32-1.6-0.44-2.279-0.44
		c-1.6,0-2.801,0.72-3.721,1.64c-2.52,2.601-2.56,5.2-2.56,7.561c0,5.399,3.28,8.28,5.88,8.28c4,0,6.801-3.32,6.801-8.601
		c0-1.28-0.201-2.479-0.521-3.52c0.601-0.4,1.84-1.28,1.84-2.08c0-0.32-0.2-0.561-0.521-0.561c-0.52,0-1.399,0.521-2,0.801
		C376.159,386.213,375.399,384.973,375.279,384.732 M360.121,386.812c0.399,0.479,0.68,1.04,0.84,1.4
		c-0.281,0.199-0.521,0.279-0.681,0.279c-0.319,0-0.479-0.24-0.479-0.6C359.801,387.612,359.92,387.213,360.121,386.812
		 M358.68,389.933c0.361,0.279,0.721,0.359,1.121,0.359c0.72,0,1.399-0.319,1.8-0.64c0.28,0.84,0.399,1.76,0.399,2.68
		c0,3.32-1.72,6.641-4.68,6.641c-3.32,0-4.6-3.601-4.6-6.28c0-3.6,1.92-7.32,4.56-7.32c0.521,0,1.04,0.12,1.601,0.44
		c-0.48,0.439-0.76,1.439-0.76,2.4C358.121,388.973,358.28,389.652,358.68,389.933 M361.2,384.732l-0.12-0.04l-0.439-0.6
		c-0.12-0.2-0.32-0.28-0.52-0.28c-0.16,0-0.361,0.08-0.48,0.24c-0.84-0.32-1.6-0.44-2.28-0.44c-1.601,0-2.8,0.72-3.72,1.64
		c-2.52,2.601-2.561,5.2-2.561,7.561c0,5.399,3.28,8.28,5.881,8.28c4,0,6.799-3.32,6.799-8.601c0-1.28-0.199-2.479-0.52-3.52
		c0.6-0.4,1.84-1.28,1.84-2.08c0-0.32-0.199-0.561-0.52-0.561c-0.52,0-1.4,0.521-2,0.801
		C362.08,386.213,361.32,384.973,361.2,384.732 M350.377,358.225c0.365,0.964,0.6,2.253,0.703,3.867
		c0.104,1.614,0.098,3.516-0.019,5.702c-0.117,2.188-0.358,4.552-0.724,7.091c-0.364,2.539-0.858,5.194-1.483,7.969
		c-0.625,2.772-1.367,5.553-2.228,8.34c-0.754-2.787-1.322-5.586-1.699-8.399c-0.377-2.812-0.604-5.514-0.684-8.104
		c-0.078-2.591-0.013-5.006,0.196-7.246c0.208-2.24,0.526-4.173,0.957-5.801c0.429-1.627,0.95-2.892,1.562-3.789
		c0.612-0.899,1.283-1.295,2.012-1.192C349.543,356.74,350.012,357.262,350.377,358.225 M337.769,389.252
		c-1.601,2.48-4.16,4.32-5.72,5.2c-0.041-0.359-0.08-0.72-0.08-1.04c0-4.52,3.72-8.08,5.52-8.08c0.6,0,1,0.36,1,1.2
		C338.488,387.173,338.289,388.053,337.769,389.252 M339.328,390.173c0.521-1.12,0.721-2.24,0.721-3.16c0-2.561-1.16-3.44-2.84-3.44
		c-4.32,0-7.121,5.32-7.121,9.92c0,4.641,2.601,7.561,6.641,7.561c2.88,0,6.84-2.721,6.84-4.92c0-0.44-0.24-0.801-0.52-0.801
		c-0.16,0-0.36,0.12-0.561,0.36c-1.4,1.96-3.279,3.48-5.96,3.48c-1.64,0-3.04-1.08-3.76-2.4l-0.16-0.32
		C333.969,395.772,337.729,393.572,339.328,390.173 M327.209,386.732c0-0.84,0.4-0.84,0.801-1c-0.041,0.92-0.16,1.76-0.32,2.6
		C327.409,387.853,327.25,387.292,327.209,386.732 M316.77,386.093c0.279,2.68,3.4,12.279,5.199,14.359
		c0.4,0.48,0.801,0.641,1.201,0.641c1.879,0,4.64-5.641,5.719-9.92c0.16,0.079,0.361,0.119,0.521,0.119c1.24,0,2.32-1.56,2.32-2.439
		c0-0.4-0.24-0.68-0.479-0.68c-0.48,0-0.761,1.279-1.801,1.279h-0.199c0.239-1.319,0.359-2.68,0.359-4.08
		c0-0.88-0.84-1.279-1.52-1.279c-2.041,0-2.48,1.72-2.48,2.88c0,1.359,0.88,2.56,1.68,3.279c-1.24,4.48-3.52,8.08-3.92,8.4
		c-0.64,0-2.48-4.08-3.4-8.16c-0.799-3.68-0.76-6.24-2.159-6.24c-0.521,0-1.08,0.48-1.08,1.48
		C316.729,385.853,316.729,385.973,316.77,386.093 M305.688,399.292c-0.52-0.159-0.68-0.88-0.68-1.64c0-1,0.24-2.16,0.36-2.56
		c0.16-1.16,0.96-3.761,2.8-3.761c1.44,0,2.84,2.801,3.44,4.601c-0.96,1.76-3.56,3.479-5.24,3.479
		C306.128,399.412,305.888,399.372,305.688,399.292 M305.128,387.492c1-0.88,2.52-1.88,3.959-1.88c2.16,0,4,3.04,4,6.12
		c0,0.8-0.119,1.56-0.319,2.28c-0.681-2.12-2.44-4.48-4.72-4.48c-3.92,0-4.72,6.24-4.72,7.92c0,1.92,0.68,3.681,3.16,3.681
		c2.2,0,4.6-1.48,5.84-3.16c0.44,1.76,1.28,2.84,2.68,2.84c1,0,1.48-0.72,1.48-1.28c0-0.399-0.279-0.76-0.76-0.76
		c-0.16,0-0.32,0.04-0.48,0.04c-0.92,0-1.359-1.36-1.6-2.2l0.08-0.2c0.52-1.279,0.96-3.16,0.96-5.12c0-4.04-2.32-7.64-5.479-7.64
		c-1.761,0-5.4,1.72-5.4,3.561c0,0.359,0.2,0.6,0.56,0.6C304.568,387.812,304.849,387.732,305.128,387.492 M295.568,387.973
		c-0.6,5.88-0.72,10.6-0.72,12.319c0,0.681,0.48,1.04,0.96,1.04c0.56,0,1.04-0.399,1.04-1.239v-0.48c0-2.12,0.32-9.04,0.48-9.92
		c0.32-1.96,2.36-4.68,4.28-4.68c1.04,0,1.36,0.6,1.36,1.279c0,2.12-1.56,2-1.56,2.761c0,0.56,0.48,1.279,1.2,1.279
		c0.96,0,2-1.8,2-4c0-1.68-0.68-3-2.64-3c-1.76,0-3.56,1.16-4.48,3.36c0-0.04,0.16-1,0.16-1.68c0-0.521-0.16-0.96-0.76-0.96
		c-0.32,0-0.64,0.199-0.84,0.64l-0.08,0.24 M374.199,386.812c0.4,0.479,0.68,1.04,0.84,1.4c-0.279,0.199-0.52,0.279-0.68,0.279
		c-0.32,0-0.48-0.24-0.48-0.6C373.879,387.612,374,387.213,374.199,386.812 M372.76,389.933c0.359,0.279,0.72,0.359,1.119,0.359
		c0.721,0,1.4-0.319,1.801-0.64c0.279,0.84,0.4,1.76,0.4,2.68c0,3.32-1.721,6.641-4.681,6.641c-3.319,0-4.601-3.601-4.601-6.28
		c0-3.6,1.92-7.32,4.561-7.32c0.52,0,1.04,0.12,1.6,0.44c-0.479,0.439-0.76,1.439-0.76,2.4
		C372.199,388.973,372.359,389.652,372.76,389.933 M375.279,384.732l-0.12-0.04l-0.44-0.6c-0.119-0.2-0.319-0.28-0.52-0.28
		c-0.16,0-0.359,0.08-0.48,0.24c-0.84-0.32-1.6-0.44-2.279-0.44c-1.6,0-2.801,0.72-3.721,1.64c-2.52,2.601-2.56,5.2-2.56,7.561
		c0,5.399,3.28,8.28,5.88,8.28c4,0,6.801-3.32,6.801-8.601c0-1.28-0.201-2.479-0.521-3.52c0.601-0.4,1.84-1.28,1.84-2.08
		c0-0.32-0.2-0.561-0.521-0.561c-0.52,0-1.399,0.521-2,0.801C376.159,386.213,375.399,384.973,375.279,384.732 M360.121,386.812
		c0.399,0.479,0.68,1.04,0.84,1.4c-0.281,0.199-0.521,0.279-0.681,0.279c-0.319,0-0.479-0.24-0.479-0.6
		C359.801,387.612,359.92,387.213,360.121,386.812 M358.68,389.933c0.361,0.279,0.721,0.359,1.121,0.359
		c0.72,0,1.399-0.319,1.8-0.64c0.28,0.84,0.399,1.76,0.399,2.68c0,3.32-1.72,6.641-4.68,6.641c-3.32,0-4.6-3.601-4.6-6.28
		c0-3.6,1.92-7.32,4.56-7.32c0.521,0,1.04,0.12,1.601,0.44c-0.48,0.439-0.76,1.439-0.76,2.4
		C358.121,388.973,358.28,389.652,358.68,389.933 M361.2,384.732l-0.12-0.04l-0.439-0.6c-0.12-0.2-0.32-0.28-0.52-0.28
		c-0.16,0-0.361,0.08-0.48,0.24c-0.84-0.32-1.6-0.44-2.28-0.44c-1.601,0-2.8,0.72-3.72,1.64c-2.52,2.601-2.561,5.2-2.561,7.561
		c0,5.399,3.28,8.28,5.881,8.28c4,0,6.799-3.32,6.799-8.601c0-1.28-0.199-2.479-0.52-3.52c0.6-0.4,1.84-1.28,1.84-2.08
		c0-0.32-0.199-0.561-0.52-0.561c-0.52,0-1.4,0.521-2,0.801C362.08,386.213,361.32,384.973,361.2,384.732 M350.377,358.225
		c0.365,0.964,0.6,2.253,0.703,3.867c0.104,1.614,0.098,3.516-0.019,5.702c-0.117,2.188-0.358,4.552-0.724,7.091
		c-0.364,2.539-0.858,5.194-1.483,7.969c-0.625,2.772-1.367,5.553-2.228,8.34c-0.754-2.787-1.322-5.586-1.699-8.399
		c-0.377-2.812-0.604-5.514-0.684-8.104c-0.078-2.591-0.013-5.006,0.196-7.246c0.208-2.24,0.526-4.173,0.957-5.801
		c0.429-1.627,0.95-2.892,1.562-3.789c0.612-0.899,1.283-1.295,2.012-1.192C349.543,356.74,350.012,357.262,350.377,358.225
		 M337.769,389.252c-1.601,2.48-4.16,4.32-5.72,5.2c-0.041-0.359-0.08-0.72-0.08-1.04c0-4.52,3.72-8.08,5.52-8.08
		c0.6,0,1,0.36,1,1.2C338.488,387.173,338.289,388.053,337.769,389.252 M339.328,390.173c0.521-1.12,0.721-2.24,0.721-3.16
		c0-2.561-1.16-3.44-2.84-3.44c-4.32,0-7.121,5.32-7.121,9.92c0,4.641,2.601,7.561,6.641,7.561c2.88,0,6.84-2.721,6.84-4.92
		c0-0.44-0.24-0.801-0.52-0.801c-0.16,0-0.36,0.12-0.561,0.36c-1.4,1.96-3.279,3.48-5.96,3.48c-1.64,0-3.04-1.08-3.76-2.4
		l-0.16-0.32C333.969,395.772,337.729,393.572,339.328,390.173 M327.209,386.732c0-0.84,0.4-0.84,0.801-1
		c-0.041,0.92-0.16,1.76-0.32,2.6C327.409,387.853,327.25,387.292,327.209,386.732 M316.77,386.093
		c0.279,2.68,3.4,12.279,5.199,14.359c0.4,0.48,0.801,0.641,1.201,0.641c1.879,0,4.64-5.641,5.719-9.92
		c0.16,0.079,0.361,0.119,0.521,0.119c1.24,0,2.32-1.56,2.32-2.439c0-0.4-0.24-0.68-0.479-0.68c-0.48,0-0.761,1.279-1.801,1.279
		h-0.199c0.239-1.319,0.359-2.68,0.359-4.08c0-0.88-0.84-1.279-1.52-1.279c-2.041,0-2.48,1.72-2.48,2.88
		c0,1.359,0.88,2.56,1.68,3.279c-1.24,4.48-3.52,8.08-3.92,8.4c-0.64,0-2.48-4.08-3.4-8.16c-0.799-3.68-0.76-6.24-2.159-6.24
		c-0.521,0-1.08,0.48-1.08,1.48C316.729,385.853,316.729,385.973,316.77,386.093 M305.688,399.292c-0.52-0.159-0.68-0.88-0.68-1.64
		c0-1,0.24-2.16,0.36-2.56c0.16-1.16,0.96-3.761,2.8-3.761c1.44,0,2.84,2.801,3.44,4.601c-0.96,1.76-3.56,3.479-5.24,3.479
		C306.128,399.412,305.888,399.372,305.688,399.292 M305.128,387.492c1-0.88,2.52-1.88,3.959-1.88c2.16,0,4,3.04,4,6.12
		c0,0.8-0.119,1.56-0.319,2.28c-0.681-2.12-2.44-4.48-4.72-4.48c-3.92,0-4.72,6.24-4.72,7.92c0,1.92,0.68,3.681,3.16,3.681
		c2.2,0,4.6-1.48,5.84-3.16c0.44,1.76,1.28,2.84,2.68,2.84c1,0,1.48-0.72,1.48-1.28c0-0.399-0.279-0.76-0.76-0.76
		c-0.16,0-0.32,0.04-0.48,0.04c-0.92,0-1.359-1.36-1.6-2.2l0.08-0.2c0.52-1.279,0.96-3.16,0.96-5.12c0-4.04-2.32-7.64-5.479-7.64
		c-1.761,0-5.4,1.72-5.4,3.561c0,0.359,0.2,0.6,0.56,0.6C304.568,387.812,304.849,387.732,305.128,387.492 M295.568,387.973
		c-0.6,5.88-0.72,10.6-0.72,12.319c0,0.681,0.48,1.04,0.96,1.04c0.56,0,1.04-0.399,1.04-1.239v-0.48c0-2.12,0.32-9.04,0.48-9.92
		c0.32-1.96,2.36-4.68,4.28-4.68c1.04,0,1.36,0.6,1.36,1.279c0,2.12-1.56,2-1.56,2.761c0,0.56,0.48,1.279,1.2,1.279
		c0.96,0,2-1.8,2-4c0-1.68-0.68-3-2.64-3c-1.76,0-3.56,1.16-4.48,3.36c0-0.04,0.16-1,0.16-1.68c0-0.521-0.16-0.96-0.76-0.96
		c-0.32,0-0.64,0.199-0.84,0.64l-0.08,0.24 M374.199,386.812c0.4,0.479,0.68,1.04,0.84,1.4c-0.279,0.199-0.52,0.279-0.68,0.279
		c-0.32,0-0.48-0.24-0.48-0.6C373.879,387.612,374,387.213,374.199,386.812 M372.76,389.933c0.359,0.279,0.72,0.359,1.119,0.359
		c0.721,0,1.4-0.319,1.801-0.64c0.279,0.84,0.4,1.76,0.4,2.68c0,3.32-1.721,6.641-4.681,6.641c-3.319,0-4.601-3.601-4.601-6.28
		c0-3.6,1.92-7.32,4.561-7.32c0.52,0,1.04,0.12,1.6,0.44c-0.479,0.439-0.76,1.439-0.76,2.4
		C372.199,388.973,372.359,389.652,372.76,389.933 M375.279,384.732l-0.12-0.04l-0.44-0.6c-0.119-0.2-0.319-0.28-0.52-0.28
		c-0.16,0-0.359,0.08-0.48,0.24c-0.84-0.32-1.6-0.44-2.279-0.44c-1.6,0-2.801,0.72-3.721,1.64c-2.52,2.601-2.56,5.2-2.56,7.561
		c0,5.399,3.28,8.28,5.88,8.28c4,0,6.801-3.32,6.801-8.601c0-1.28-0.201-2.479-0.521-3.52c0.601-0.4,1.84-1.28,1.84-2.08
		c0-0.32-0.2-0.561-0.521-0.561c-0.52,0-1.399,0.521-2,0.801C376.159,386.213,375.399,384.973,375.279,384.732 M360.121,386.812
		c0.399,0.479,0.68,1.04,0.84,1.4c-0.281,0.199-0.521,0.279-0.681,0.279c-0.319,0-0.479-0.24-0.479-0.6
		C359.801,387.612,359.92,387.213,360.121,386.812 M358.68,389.933c0.361,0.279,0.721,0.359,1.121,0.359
		c0.72,0,1.399-0.319,1.8-0.64c0.28,0.84,0.399,1.76,0.399,2.68c0,3.32-1.72,6.641-4.68,6.641c-3.32,0-4.6-3.601-4.6-6.28
		c0-3.6,1.92-7.32,4.56-7.32c0.521,0,1.04,0.12,1.601,0.44c-0.48,0.439-0.76,1.439-0.76,2.4
		C358.121,388.973,358.28,389.652,358.68,389.933 M361.2,384.732l-0.12-0.04l-0.439-0.6c-0.12-0.2-0.32-0.28-0.52-0.28
		c-0.16,0-0.361,0.08-0.48,0.24c-0.84-0.32-1.6-0.44-2.28-0.44c-1.601,0-2.8,0.72-3.72,1.64c-2.52,2.601-2.561,5.2-2.561,7.561
		c0,5.399,3.28,8.28,5.881,8.28c4,0,6.799-3.32,6.799-8.601c0-1.28-0.199-2.479-0.52-3.52c0.6-0.4,1.84-1.28,1.84-2.08
		c0-0.32-0.199-0.561-0.52-0.561c-0.52,0-1.4,0.521-2,0.801C362.08,386.213,361.32,384.973,361.2,384.732 M350.377,358.225
		c0.365,0.964,0.6,2.253,0.703,3.867c0.104,1.614,0.098,3.516-0.019,5.702c-0.117,2.188-0.358,4.552-0.724,7.091
		c-0.364,2.539-0.858,5.194-1.483,7.969c-0.625,2.772-1.367,5.553-2.228,8.34c-0.754-2.787-1.322-5.586-1.699-8.399
		c-0.377-2.812-0.604-5.514-0.684-8.104c-0.078-2.591-0.013-5.006,0.196-7.246c0.208-2.24,0.526-4.173,0.957-5.801
		c0.429-1.627,0.95-2.892,1.562-3.789c0.612-0.899,1.283-1.295,2.012-1.192C349.543,356.74,350.012,357.262,350.377,358.225
		 M337.769,389.252c-1.601,2.48-4.16,4.32-5.72,5.2c-0.041-0.359-0.08-0.72-0.08-1.04c0-4.52,3.72-8.08,5.52-8.08
		c0.6,0,1,0.36,1,1.2C338.488,387.173,338.289,388.053,337.769,389.252 M339.328,390.173c0.521-1.12,0.721-2.24,0.721-3.16
		c0-2.561-1.16-3.44-2.84-3.44c-4.32,0-7.121,5.32-7.121,9.92c0,4.641,2.601,7.561,6.641,7.561c2.88,0,6.84-2.721,6.84-4.92
		c0-0.44-0.24-0.801-0.52-0.801c-0.16,0-0.36,0.12-0.561,0.36c-1.4,1.96-3.279,3.48-5.96,3.48c-1.64,0-3.04-1.08-3.76-2.4
		l-0.16-0.32C333.969,395.772,337.729,393.572,339.328,390.173 M327.209,386.732c0-0.84,0.4-0.84,0.801-1
		c-0.041,0.92-0.16,1.76-0.32,2.6C327.409,387.853,327.25,387.292,327.209,386.732 M316.77,386.093
		c0.279,2.68,3.4,12.279,5.199,14.359c0.4,0.48,0.801,0.641,1.201,0.641c1.879,0,4.64-5.641,5.719-9.92
		c0.16,0.079,0.361,0.119,0.521,0.119c1.24,0,2.32-1.56,2.32-2.439c0-0.4-0.24-0.68-0.479-0.68c-0.48,0-0.761,1.279-1.801,1.279
		h-0.199c0.239-1.319,0.359-2.68,0.359-4.08c0-0.88-0.84-1.279-1.52-1.279c-2.041,0-2.48,1.72-2.48,2.88
		c0,1.359,0.88,2.56,1.68,3.279c-1.24,4.48-3.52,8.08-3.92,8.4c-0.64,0-2.48-4.08-3.4-8.16c-0.799-3.68-0.76-6.24-2.159-6.24
		c-0.521,0-1.08,0.48-1.08,1.48C316.729,385.853,316.729,385.973,316.77,386.093 M305.688,399.292c-0.52-0.159-0.68-0.88-0.68-1.64
		c0-1,0.24-2.16,0.36-2.56c0.16-1.16,0.96-3.761,2.8-3.761c1.44,0,2.84,2.801,3.44,4.601c-0.96,1.76-3.56,3.479-5.24,3.479
		C306.128,399.412,305.888,399.372,305.688,399.292 M305.128,387.492c1-0.88,2.52-1.88,3.959-1.88c2.16,0,4,3.04,4,6.12
		c0,0.8-0.119,1.56-0.319,2.28c-0.681-2.12-2.44-4.48-4.72-4.48c-3.92,0-4.72,6.24-4.72,7.92c0,1.92,0.68,3.681,3.16,3.681
		c2.2,0,4.6-1.48,5.84-3.16c0.44,1.76,1.28,2.84,2.68,2.84c1,0,1.48-0.72,1.48-1.28c0-0.399-0.279-0.76-0.76-0.76
		c-0.16,0-0.32,0.04-0.48,0.04c-0.92,0-1.359-1.36-1.6-2.2l0.08-0.2c0.52-1.279,0.96-3.16,0.96-5.12c0-4.04-2.32-7.64-5.479-7.64
		c-1.761,0-5.4,1.72-5.4,3.561c0,0.359,0.2,0.6,0.56,0.6C304.568,387.812,304.849,387.732,305.128,387.492 M295.568,387.973
		c-0.6,5.88-0.72,10.6-0.72,12.319c0,0.681,0.48,1.04,0.96,1.04c0.56,0,1.04-0.399,1.04-1.239v-0.48c0-2.12,0.32-9.04,0.48-9.92
		c0.32-1.96,2.36-4.68,4.28-4.68c1.04,0,1.36,0.6,1.36,1.279c0,2.12-1.56,2-1.56,2.761c0,0.56,0.48,1.279,1.2,1.279
		c0.96,0,2-1.8,2-4c0-1.68-0.68-3-2.64-3c-1.76,0-3.56,1.16-4.48,3.36c0-0.04,0.16-1,0.16-1.68c0-0.521-0.16-0.96-0.76-0.96
		c-0.32,0-0.64,0.199-0.84,0.64l-0.08,0.24 M382.439,397.372c0.199-4.199,0.561-7.76,0.76-11.56c0.16,0,0.36-0.04,0.641-0.04
		c3.799,0,5.6,3.16,5.6,6.439c0,5.24-3.08,7.32-6.439,7.32c-0.24,0-0.48,0-0.721-0.04L382.439,397.372z M382.439,397.372
		c0.199-4.199,0.561-7.76,0.76-11.56c0.16,0,0.36-0.04,0.641-0.04c3.799,0,5.6,3.16,5.6,6.439c0,5.24-3.08,7.32-6.439,7.32
		c-0.24,0-0.48,0-0.721-0.04L382.439,397.372z M382.439,397.372c0.199-4.199,0.561-7.76,0.76-11.56c0.16,0,0.36-0.04,0.641-0.04
		c3.799,0,5.6,3.16,5.6,6.439c0,5.24-3.08,7.32-6.439,7.32c-0.24,0-0.48,0-0.721-0.04L382.439,397.372z M382.439,397.372
		c0.199-4.199,0.561-7.76,0.76-11.56c0.16,0,0.36-0.04,0.641-0.04c3.799,0,5.6,3.16,5.6,6.439c0,5.24-3.08,7.32-6.439,7.32
		c-0.24,0-0.48,0-0.721-0.04L382.439,397.372z M382.199,401.093c0.24,0.04,0.52,0.04,0.76,0.04c5.08,0,8.4-3.881,8.4-8.641
		c0-4.84-2.76-8.399-7.88-8.399h-0.399c-0.201-0.2-0.601-0.32-0.961-0.32c-0.4,0-0.76,0.16-0.8,0.52
		c-2.601,0.561-4.88,2.16-4.88,4.601c0,0.84,0.48,1.16,1,1.16c0.48,0,0.96-0.28,1.04-0.721c0.36-1.96,1.44-2.8,2.72-3.199
		c-0.199,3.359-0.52,6.399-0.8,11.76 M374.199,386.812c0.4,0.479,0.68,1.04,0.84,1.4c-0.279,0.199-0.52,0.279-0.68,0.279
		c-0.32,0-0.48-0.24-0.48-0.6C373.879,387.612,374,387.213,374.199,386.812 M372.76,389.933c0.359,0.279,0.72,0.359,1.119,0.359
		c0.721,0,1.4-0.319,1.801-0.64c0.279,0.84,0.4,1.76,0.4,2.68c0,3.32-1.721,6.641-4.681,6.641c-3.319,0-4.601-3.601-4.601-6.28
		c0-3.6,1.92-7.32,4.561-7.32c0.52,0,1.04,0.12,1.6,0.44c-0.479,0.439-0.76,1.439-0.76,2.4
		C372.199,388.973,372.359,389.652,372.76,389.933 M375.279,384.732l-0.12-0.04l-0.44-0.6c-0.119-0.2-0.319-0.28-0.52-0.28
		c-0.16,0-0.359,0.08-0.48,0.24c-0.84-0.32-1.6-0.44-2.279-0.44c-1.6,0-2.801,0.72-3.721,1.64c-2.52,2.601-2.56,5.2-2.56,7.561
		c0,5.399,3.28,8.28,5.88,8.28c4,0,6.801-3.32,6.801-8.601c0-1.28-0.201-2.479-0.521-3.52c0.601-0.4,1.84-1.28,1.84-2.08
		c0-0.32-0.2-0.561-0.521-0.561c-0.52,0-1.399,0.521-2,0.801C376.159,386.213,375.399,384.973,375.279,384.732 M360.121,386.812
		c0.399,0.479,0.68,1.04,0.84,1.4c-0.281,0.199-0.521,0.279-0.681,0.279c-0.319,0-0.479-0.24-0.479-0.6
		C359.801,387.612,359.92,387.213,360.121,386.812 M358.68,389.933c0.361,0.279,0.721,0.359,1.121,0.359
		c0.72,0,1.399-0.319,1.8-0.64c0.28,0.84,0.399,1.76,0.399,2.68c0,3.32-1.72,6.641-4.68,6.641c-3.32,0-4.6-3.601-4.6-6.28
		c0-3.6,1.92-7.32,4.56-7.32c0.521,0,1.04,0.12,1.601,0.44c-0.48,0.439-0.76,1.439-0.76,2.4
		C358.121,388.973,358.28,389.652,358.68,389.933 M361.2,384.732l-0.12-0.04l-0.439-0.6c-0.12-0.2-0.32-0.28-0.52-0.28
		c-0.16,0-0.361,0.08-0.48,0.24c-0.84-0.32-1.6-0.44-2.28-0.44c-1.601,0-2.8,0.72-3.72,1.64c-2.52,2.601-2.561,5.2-2.561,7.561
		c0,5.399,3.28,8.28,5.881,8.28c4,0,6.799-3.32,6.799-8.601c0-1.28-0.199-2.479-0.52-3.52c0.6-0.4,1.84-1.28,1.84-2.08
		c0-0.32-0.199-0.561-0.52-0.561c-0.52,0-1.4,0.521-2,0.801C362.08,386.213,361.32,384.973,361.2,384.732 M350.377,358.225
		c0.365,0.964,0.6,2.253,0.703,3.867c0.104,1.614,0.098,3.516-0.019,5.702c-0.117,2.188-0.358,4.552-0.724,7.091
		c-0.364,2.539-0.858,5.194-1.483,7.969c-0.625,2.772-1.367,5.553-2.228,8.34c-0.754-2.787-1.322-5.586-1.699-8.399
		c-0.377-2.812-0.604-5.514-0.684-8.104c-0.078-2.591-0.013-5.006,0.196-7.246c0.208-2.24,0.526-4.173,0.957-5.801
		c0.429-1.627,0.95-2.892,1.562-3.789c0.612-0.899,1.283-1.295,2.012-1.192C349.543,356.74,350.012,357.262,350.377,358.225
		 M382.199,401.093c0.24,0.04,0.52,0.04,0.76,0.04c5.08,0,8.4-3.881,8.4-8.641c0-4.84-2.76-8.399-7.88-8.399h-0.399
		c-0.201-0.2-0.601-0.32-0.961-0.32c-0.4,0-0.76,0.16-0.8,0.52c-2.601,0.561-4.88,2.16-4.88,4.601c0,0.84,0.48,1.16,1,1.16
		c0.48,0,0.96-0.28,1.04-0.721c0.36-1.96,1.44-2.8,2.72-3.199c-0.199,3.359-0.52,6.399-0.8,11.76 M337.769,389.252
		c-1.601,2.48-4.16,4.32-5.72,5.2c-0.041-0.359-0.08-0.72-0.08-1.04c0-4.52,3.72-8.08,5.52-8.08c0.6,0,1,0.36,1,1.2
		C338.488,387.173,338.289,388.053,337.769,389.252 M339.328,390.173c0.521-1.12,0.721-2.24,0.721-3.16c0-2.561-1.16-3.44-2.84-3.44
		c-4.32,0-7.121,5.32-7.121,9.92c0,4.641,2.601,7.561,6.641,7.561c2.88,0,6.84-2.721,6.84-4.92c0-0.44-0.24-0.801-0.52-0.801
		c-0.16,0-0.36,0.12-0.561,0.36c-1.4,1.96-3.279,3.48-5.96,3.48c-1.64,0-3.04-1.08-3.76-2.4l-0.16-0.32
		C333.969,395.772,337.729,393.572,339.328,390.173 M327.209,386.732c0-0.84,0.4-0.84,0.801-1c-0.041,0.92-0.16,1.76-0.32,2.6
		C327.409,387.853,327.25,387.292,327.209,386.732 M316.77,386.093c0.279,2.68,3.4,12.279,5.199,14.359
		c0.4,0.48,0.801,0.641,1.201,0.641c1.879,0,4.64-5.641,5.719-9.92c0.16,0.079,0.361,0.119,0.521,0.119c1.24,0,2.32-1.56,2.32-2.439
		c0-0.4-0.24-0.68-0.479-0.68c-0.48,0-0.761,1.279-1.801,1.279h-0.199c0.239-1.319,0.359-2.68,0.359-4.08
		c0-0.88-0.84-1.279-1.52-1.279c-2.041,0-2.48,1.72-2.48,2.88c0,1.359,0.88,2.56,1.68,3.279c-1.24,4.48-3.52,8.08-3.92,8.4
		c-0.64,0-2.48-4.08-3.4-8.16c-0.799-3.68-0.76-6.24-2.159-6.24c-0.521,0-1.08,0.48-1.08,1.48
		C316.729,385.853,316.729,385.973,316.77,386.093 M305.688,399.292c-0.52-0.159-0.68-0.88-0.68-1.64c0-1,0.24-2.16,0.36-2.56
		c0.16-1.16,0.96-3.761,2.8-3.761c1.44,0,2.84,2.801,3.44,4.601c-0.96,1.76-3.56,3.479-5.24,3.479
		C306.128,399.412,305.888,399.372,305.688,399.292 M305.128,387.492c1-0.88,2.52-1.88,3.959-1.88c2.16,0,4,3.04,4,6.12
		c0,0.8-0.119,1.56-0.319,2.28c-0.681-2.12-2.44-4.48-4.72-4.48c-3.92,0-4.72,6.24-4.72,7.92c0,1.92,0.68,3.681,3.16,3.681
		c2.2,0,4.6-1.48,5.84-3.16c0.44,1.76,1.28,2.84,2.68,2.84c1,0,1.48-0.72,1.48-1.28c0-0.399-0.279-0.76-0.76-0.76
		c-0.16,0-0.32,0.04-0.48,0.04c-0.92,0-1.359-1.36-1.6-2.2l0.08-0.2c0.52-1.279,0.96-3.16,0.96-5.12c0-4.04-2.32-7.64-5.479-7.64
		c-1.761,0-5.4,1.72-5.4,3.561c0,0.359,0.2,0.6,0.56,0.6C304.568,387.812,304.849,387.732,305.128,387.492 M374.199,386.812
		c0.4,0.479,0.68,1.04,0.84,1.4c-0.279,0.199-0.52,0.279-0.68,0.279c-0.32,0-0.48-0.24-0.48-0.6
		C373.879,387.612,374,387.213,374.199,386.812 M372.76,389.933c0.359,0.279,0.72,0.359,1.119,0.359c0.721,0,1.4-0.319,1.801-0.64
		c0.279,0.84,0.4,1.76,0.4,2.68c0,3.32-1.721,6.641-4.681,6.641c-3.319,0-4.601-3.601-4.601-6.28c0-3.6,1.92-7.32,4.561-7.32
		c0.52,0,1.04,0.12,1.6,0.44c-0.479,0.439-0.76,1.439-0.76,2.4C372.199,388.973,372.359,389.652,372.76,389.933 M375.279,384.732
		l-0.12-0.04l-0.44-0.6c-0.119-0.2-0.319-0.28-0.52-0.28c-0.16,0-0.359,0.08-0.48,0.24c-0.84-0.32-1.6-0.44-2.279-0.44
		c-1.6,0-2.801,0.72-3.721,1.64c-2.52,2.601-2.56,5.2-2.56,7.561c0,5.399,3.28,8.28,5.88,8.28c4,0,6.801-3.32,6.801-8.601
		c0-1.28-0.201-2.479-0.521-3.52c0.601-0.4,1.84-1.28,1.84-2.08c0-0.32-0.2-0.561-0.521-0.561c-0.52,0-1.399,0.521-2,0.801
		C376.159,386.213,375.399,384.973,375.279,384.732 M360.121,386.812c0.399,0.479,0.68,1.04,0.84,1.4
		c-0.281,0.199-0.521,0.279-0.681,0.279c-0.319,0-0.479-0.24-0.479-0.6C359.801,387.612,359.92,387.213,360.121,386.812
		 M358.68,389.933c0.361,0.279,0.721,0.359,1.121,0.359c0.72,0,1.399-0.319,1.8-0.64c0.28,0.84,0.399,1.76,0.399,2.68
		c0,3.32-1.72,6.641-4.68,6.641c-3.32,0-4.6-3.601-4.6-6.28c0-3.6,1.92-7.32,4.56-7.32c0.521,0,1.04,0.12,1.601,0.44
		c-0.48,0.439-0.76,1.439-0.76,2.4C358.121,388.973,358.28,389.652,358.68,389.933 M361.2,384.732l-0.12-0.04l-0.439-0.6
		c-0.12-0.2-0.32-0.28-0.52-0.28c-0.16,0-0.361,0.08-0.48,0.24c-0.84-0.32-1.6-0.44-2.28-0.44c-1.601,0-2.8,0.72-3.72,1.64
		c-2.52,2.601-2.561,5.2-2.561,7.561c0,5.399,3.28,8.28,5.881,8.28c4,0,6.799-3.32,6.799-8.601c0-1.28-0.199-2.479-0.52-3.52
		c0.6-0.4,1.84-1.28,1.84-2.08c0-0.32-0.199-0.561-0.52-0.561c-0.52,0-1.4,0.521-2,0.801
		C362.08,386.213,361.32,384.973,361.2,384.732 M350.377,358.225c0.365,0.964,0.6,2.253,0.703,3.867
		c0.104,1.614,0.098,3.516-0.019,5.702c-0.117,2.188-0.358,4.552-0.724,7.091c-0.364,2.539-0.858,5.194-1.483,7.969
		c-0.625,2.772-1.367,5.553-2.228,8.34c-0.754-2.787-1.322-5.586-1.699-8.399c-0.377-2.812-0.604-5.514-0.684-8.104
		c-0.078-2.591-0.013-5.006,0.196-7.246c0.208-2.24,0.526-4.173,0.957-5.801c0.429-1.627,0.95-2.892,1.562-3.789
		c0.612-0.899,1.283-1.295,2.012-1.192C349.543,356.74,350.012,357.262,350.377,358.225 M337.769,389.252
		c-1.601,2.48-4.16,4.32-5.72,5.2c-0.041-0.359-0.08-0.72-0.08-1.04c0-4.52,3.72-8.08,5.52-8.08c0.6,0,1,0.36,1,1.2
		C338.488,387.173,338.289,388.053,337.769,389.252 M339.328,390.173c0.521-1.12,0.721-2.24,0.721-3.16c0-2.561-1.16-3.44-2.84-3.44
		c-4.32,0-7.121,5.32-7.121,9.92c0,4.641,2.601,7.561,6.641,7.561c2.88,0,6.84-2.721,6.84-4.92c0-0.44-0.24-0.801-0.52-0.801
		c-0.16,0-0.36,0.12-0.561,0.36c-1.4,1.96-3.279,3.48-5.96,3.48c-1.64,0-3.04-1.08-3.76-2.4l-0.16-0.32
		C333.969,395.772,337.729,393.572,339.328,390.173 M327.209,386.732c0-0.84,0.4-0.84,0.801-1c-0.041,0.92-0.16,1.76-0.32,2.6
		C327.409,387.853,327.25,387.292,327.209,386.732 M316.77,386.093c0.279,2.68,3.4,12.279,5.199,14.359
		c0.4,0.48,0.801,0.641,1.201,0.641c1.879,0,4.64-5.641,5.719-9.92c0.16,0.079,0.361,0.119,0.521,0.119c1.24,0,2.32-1.56,2.32-2.439
		c0-0.4-0.24-0.68-0.479-0.68c-0.48,0-0.761,1.279-1.801,1.279h-0.199c0.239-1.319,0.359-2.68,0.359-4.08
		c0-0.88-0.84-1.279-1.52-1.279c-2.041,0-2.48,1.72-2.48,2.88c0,1.359,0.88,2.56,1.68,3.279c-1.24,4.48-3.52,8.08-3.92,8.4
		c-0.64,0-2.48-4.08-3.4-8.16c-0.799-3.68-0.76-6.24-2.159-6.24c-0.521,0-1.08,0.48-1.08,1.48
		C316.729,385.853,316.729,385.973,316.77,386.093 M305.688,399.292c-0.52-0.159-0.68-0.88-0.68-1.64c0-1,0.24-2.16,0.36-2.56
		c0.16-1.16,0.96-3.761,2.8-3.761c1.44,0,2.84,2.801,3.44,4.601c-0.96,1.76-3.56,3.479-5.24,3.479
		C306.128,399.412,305.888,399.372,305.688,399.292 M305.128,387.492c1-0.88,2.52-1.88,3.959-1.88c2.16,0,4,3.04,4,6.12
		c0,0.8-0.119,1.56-0.319,2.28c-0.681-2.12-2.44-4.48-4.72-4.48c-3.92,0-4.72,6.24-4.72,7.92c0,1.92,0.68,3.681,3.16,3.681
		c2.2,0,4.6-1.48,5.84-3.16c0.44,1.76,1.28,2.84,2.68,2.84c1,0,1.48-0.72,1.48-1.28c0-0.399-0.279-0.76-0.76-0.76
		c-0.16,0-0.32,0.04-0.48,0.04c-0.92,0-1.359-1.36-1.6-2.2l0.08-0.2c0.52-1.279,0.96-3.16,0.96-5.12c0-4.04-2.32-7.64-5.479-7.64
		c-1.761,0-5.4,1.72-5.4,3.561c0,0.359,0.2,0.6,0.56,0.6C304.568,387.812,304.849,387.732,305.128,387.492 M295.568,387.973
		c-0.6,5.88-0.72,10.6-0.72,12.319c0,0.681,0.48,1.04,0.96,1.04c0.56,0,1.04-0.399,1.04-1.239v-0.48c0-2.12,0.32-9.04,0.48-9.92
		c0.32-1.96,2.36-4.68,4.28-4.68c1.04,0,1.36,0.6,1.36,1.279c0,2.12-1.56,2-1.56,2.761c0,0.56,0.48,1.279,1.2,1.279
		c0.96,0,2-1.8,2-4c0-1.68-0.68-3-2.64-3c-1.76,0-3.56,1.16-4.48,3.36c0-0.04,0.16-1,0.16-1.68c0-0.521-0.16-0.96-0.76-0.96
		c-0.32,0-0.64,0.199-0.84,0.64l-0.08,0.24 M374.199,386.812c0.4,0.479,0.68,1.04,0.84,1.4c-0.279,0.199-0.52,0.279-0.68,0.279
		c-0.32,0-0.48-0.24-0.48-0.6C373.879,387.612,374,387.213,374.199,386.812 M372.76,389.933c0.359,0.279,0.72,0.359,1.119,0.359
		c0.721,0,1.4-0.319,1.801-0.64c0.279,0.84,0.4,1.76,0.4,2.68c0,3.32-1.721,6.641-4.681,6.641c-3.319,0-4.601-3.601-4.601-6.28
		c0-3.6,1.92-7.32,4.561-7.32c0.52,0,1.04,0.12,1.6,0.44c-0.479,0.439-0.76,1.439-0.76,2.4
		C372.199,388.973,372.359,389.652,372.76,389.933 M375.279,384.732l-0.12-0.04l-0.44-0.6c-0.119-0.2-0.319-0.28-0.52-0.28
		c-0.16,0-0.359,0.08-0.48,0.24c-0.84-0.32-1.6-0.44-2.279-0.44c-1.6,0-2.801,0.72-3.721,1.64c-2.52,2.601-2.56,5.2-2.56,7.561
		c0,5.399,3.28,8.28,5.88,8.28c4,0,6.801-3.32,6.801-8.601c0-1.28-0.201-2.479-0.521-3.52c0.601-0.4,1.84-1.28,1.84-2.08
		c0-0.32-0.2-0.561-0.521-0.561c-0.52,0-1.399,0.521-2,0.801C376.159,386.213,375.399,384.973,375.279,384.732 M360.121,386.812
		c0.399,0.479,0.68,1.04,0.84,1.4c-0.281,0.199-0.521,0.279-0.681,0.279c-0.319,0-0.479-0.24-0.479-0.6
		C359.801,387.612,359.92,387.213,360.121,386.812 M358.68,389.933c0.361,0.279,0.721,0.359,1.121,0.359
		c0.72,0,1.399-0.319,1.8-0.64c0.28,0.84,0.399,1.76,0.399,2.68c0,3.32-1.72,6.641-4.68,6.641c-3.32,0-4.6-3.601-4.6-6.28
		c0-3.6,1.92-7.32,4.56-7.32c0.521,0,1.04,0.12,1.601,0.44c-0.48,0.439-0.76,1.439-0.76,2.4
		C358.121,388.973,358.28,389.652,358.68,389.933 M361.2,384.732l-0.12-0.04l-0.439-0.6c-0.12-0.2-0.32-0.28-0.52-0.28
		c-0.16,0-0.361,0.08-0.48,0.24c-0.84-0.32-1.6-0.44-2.28-0.44c-1.601,0-2.8,0.72-3.72,1.64c-2.52,2.601-2.561,5.2-2.561,7.561
		c0,5.399,3.28,8.28,5.881,8.28c4,0,6.799-3.32,6.799-8.601c0-1.28-0.199-2.479-0.52-3.52c0.6-0.4,1.84-1.28,1.84-2.08
		c0-0.32-0.199-0.561-0.52-0.561c-0.52,0-1.4,0.521-2,0.801C362.08,386.213,361.32,384.973,361.2,384.732 M350.377,358.225
		c0.365,0.964,0.6,2.253,0.703,3.867c0.104,1.614,0.098,3.516-0.019,5.702c-0.117,2.188-0.358,4.552-0.724,7.091
		c-0.364,2.539-0.858,5.194-1.483,7.969c-0.625,2.772-1.367,5.553-2.228,8.34c-0.754-2.787-1.322-5.586-1.699-8.399
		c-0.377-2.812-0.604-5.514-0.684-8.104c-0.078-2.591-0.013-5.006,0.196-7.246c0.208-2.24,0.526-4.173,0.957-5.801
		c0.429-1.627,0.95-2.892,1.562-3.789c0.612-0.899,1.283-1.295,2.012-1.192C349.543,356.74,350.012,357.262,350.377,358.225
		 M337.769,389.252c-1.601,2.48-4.16,4.32-5.72,5.2c-0.041-0.359-0.08-0.72-0.08-1.04c0-4.52,3.72-8.08,5.52-8.08
		c0.6,0,1,0.36,1,1.2C338.488,387.173,338.289,388.053,337.769,389.252 M339.328,390.173c0.521-1.12,0.721-2.24,0.721-3.16
		c0-2.561-1.16-3.44-2.84-3.44c-4.32,0-7.121,5.32-7.121,9.92c0,4.641,2.601,7.561,6.641,7.561c2.88,0,6.84-2.721,6.84-4.92
		c0-0.44-0.24-0.801-0.52-0.801c-0.16,0-0.36,0.12-0.561,0.36c-1.4,1.96-3.279,3.48-5.96,3.48c-1.64,0-3.04-1.08-3.76-2.4
		l-0.16-0.32C333.969,395.772,337.729,393.572,339.328,390.173 M327.209,386.732c0-0.84,0.4-0.84,0.801-1
		c-0.041,0.92-0.16,1.76-0.32,2.6C327.409,387.853,327.25,387.292,327.209,386.732 M316.77,386.093
		c0.279,2.68,3.4,12.279,5.199,14.359c0.4,0.48,0.801,0.641,1.201,0.641c1.879,0,4.64-5.641,5.719-9.92
		c0.16,0.079,0.361,0.119,0.521,0.119c1.24,0,2.32-1.56,2.32-2.439c0-0.4-0.24-0.68-0.479-0.68c-0.48,0-0.761,1.279-1.801,1.279
		h-0.199c0.239-1.319,0.359-2.68,0.359-4.08c0-0.88-0.84-1.279-1.52-1.279c-2.041,0-2.48,1.72-2.48,2.88
		c0,1.359,0.88,2.56,1.68,3.279c-1.24,4.48-3.52,8.08-3.92,8.4c-0.64,0-2.48-4.08-3.4-8.16c-0.799-3.68-0.76-6.24-2.159-6.24
		c-0.521,0-1.08,0.48-1.08,1.48C316.729,385.853,316.729,385.973,316.77,386.093 M305.688,399.292c-0.52-0.159-0.68-0.88-0.68-1.64
		c0-1,0.24-2.16,0.36-2.56c0.16-1.16,0.96-3.761,2.8-3.761c1.44,0,2.84,2.801,3.44,4.601c-0.96,1.76-3.56,3.479-5.24,3.479
		C306.128,399.412,305.888,399.372,305.688,399.292 M305.128,387.492c1-0.88,2.52-1.88,3.959-1.88c2.16,0,4,3.04,4,6.12
		c0,0.8-0.119,1.56-0.319,2.28c-0.681-2.12-2.44-4.48-4.72-4.48c-3.92,0-4.72,6.24-4.72,7.92c0,1.92,0.68,3.681,3.16,3.681
		c2.2,0,4.6-1.48,5.84-3.16c0.44,1.76,1.28,2.84,2.68,2.84c1,0,1.48-0.72,1.48-1.28c0-0.399-0.279-0.76-0.76-0.76
		c-0.16,0-0.32,0.04-0.48,0.04c-0.92,0-1.359-1.36-1.6-2.2l0.08-0.2c0.52-1.279,0.96-3.16,0.96-5.12c0-4.04-2.32-7.64-5.479-7.64
		c-1.761,0-5.4,1.72-5.4,3.561c0,0.359,0.2,0.6,0.56,0.6C304.568,387.812,304.849,387.732,305.128,387.492 M295.568,387.973
		c-0.6,5.88-0.72,10.6-0.72,12.319c0,0.681,0.48,1.04,0.96,1.04c0.56,0,1.04-0.399,1.04-1.239v-0.48c0-2.12,0.32-9.04,0.48-9.92
		c0.32-1.96,2.36-4.68,4.28-4.68c1.04,0,1.36,0.6,1.36,1.279c0,2.12-1.56,2-1.56,2.761c0,0.56,0.48,1.279,1.2,1.279
		c0.96,0,2-1.8,2-4c0-1.68-0.68-3-2.64-3c-1.76,0-3.56,1.16-4.48,3.36c0-0.04,0.16-1,0.16-1.68c0-0.521-0.16-0.96-0.76-0.96
		c-0.32,0-0.64,0.199-0.84,0.64l-0.08,0.24 M374.199,386.812c0.4,0.479,0.68,1.04,0.84,1.4c-0.279,0.199-0.52,0.279-0.68,0.279
		c-0.32,0-0.48-0.24-0.48-0.6C373.879,387.612,374,387.213,374.199,386.812 M372.76,389.933c0.359,0.279,0.72,0.359,1.119,0.359
		c0.721,0,1.4-0.319,1.801-0.64c0.279,0.84,0.4,1.76,0.4,2.68c0,3.32-1.721,6.641-4.681,6.641c-3.319,0-4.601-3.601-4.601-6.28
		c0-3.6,1.92-7.32,4.561-7.32c0.52,0,1.04,0.12,1.6,0.44c-0.479,0.439-0.76,1.439-0.76,2.4
		C372.199,388.973,372.359,389.652,372.76,389.933 M375.279,384.732l-0.12-0.04l-0.44-0.6c-0.119-0.2-0.319-0.28-0.52-0.28
		c-0.16,0-0.359,0.08-0.48,0.24c-0.84-0.32-1.6-0.44-2.279-0.44c-1.6,0-2.801,0.72-3.721,1.64c-2.52,2.601-2.56,5.2-2.56,7.561
		c0,5.399,3.28,8.28,5.88,8.28c4,0,6.801-3.32,6.801-8.601c0-1.28-0.201-2.479-0.521-3.52c0.601-0.4,1.84-1.28,1.84-2.08
		c0-0.32-0.2-0.561-0.521-0.561c-0.52,0-1.399,0.521-2,0.801C376.159,386.213,375.399,384.973,375.279,384.732 M360.121,386.812
		c0.399,0.479,0.68,1.04,0.84,1.4c-0.281,0.199-0.521,0.279-0.681,0.279c-0.319,0-0.479-0.24-0.479-0.6
		C359.801,387.612,359.92,387.213,360.121,386.812 M358.68,389.933c0.361,0.279,0.721,0.359,1.121,0.359
		c0.72,0,1.399-0.319,1.8-0.64c0.28,0.84,0.399,1.76,0.399,2.68c0,3.32-1.72,6.641-4.68,6.641c-3.32,0-4.6-3.601-4.6-6.28
		c0-3.6,1.92-7.32,4.56-7.32c0.521,0,1.04,0.12,1.601,0.44c-0.48,0.439-0.76,1.439-0.76,2.4
		C358.121,388.973,358.28,389.652,358.68,389.933 M361.2,384.732l-0.12-0.04l-0.439-0.6c-0.12-0.2-0.32-0.28-0.52-0.28
		c-0.16,0-0.361,0.08-0.48,0.24c-0.84-0.32-1.6-0.44-2.28-0.44c-1.601,0-2.8,0.72-3.72,1.64c-2.52,2.601-2.561,5.2-2.561,7.561
		c0,5.399,3.28,8.28,5.881,8.28c4,0,6.799-3.32,6.799-8.601c0-1.28-0.199-2.479-0.52-3.52c0.6-0.4,1.84-1.28,1.84-2.08
		c0-0.32-0.199-0.561-0.52-0.561c-0.52,0-1.4,0.521-2,0.801C362.08,386.213,361.32,384.973,361.2,384.732 M350.377,358.225
		c0.365,0.964,0.6,2.253,0.703,3.867c0.104,1.614,0.098,3.516-0.019,5.702c-0.117,2.188-0.358,4.552-0.724,7.091
		c-0.364,2.539-0.858,5.194-1.483,7.969c-0.625,2.772-1.367,5.553-2.228,8.34c-0.754-2.787-1.322-5.586-1.699-8.399
		c-0.377-2.812-0.604-5.514-0.684-8.104c-0.078-2.591-0.013-5.006,0.196-7.246c0.208-2.24,0.526-4.173,0.957-5.801
		c0.429-1.627,0.95-2.892,1.562-3.789c0.612-0.899,1.283-1.295,2.012-1.192C349.543,356.74,350.012,357.262,350.377,358.225
		 M337.769,389.252c-1.601,2.48-4.16,4.32-5.72,5.2c-0.041-0.359-0.08-0.72-0.08-1.04c0-4.52,3.72-8.08,5.52-8.08
		c0.6,0,1,0.36,1,1.2C338.488,387.173,338.289,388.053,337.769,389.252 M339.328,390.173c0.521-1.12,0.721-2.24,0.721-3.16
		c0-2.561-1.16-3.44-2.84-3.44c-4.32,0-7.121,5.32-7.121,9.92c0,4.641,2.601,7.561,6.641,7.561c2.88,0,6.84-2.721,6.84-4.92
		c0-0.44-0.24-0.801-0.52-0.801c-0.16,0-0.36,0.12-0.561,0.36c-1.4,1.96-3.279,3.48-5.96,3.48c-1.64,0-3.04-1.08-3.76-2.4
		l-0.16-0.32C333.969,395.772,337.729,393.572,339.328,390.173 M327.209,386.732c0-0.84,0.4-0.84,0.801-1
		c-0.041,0.92-0.16,1.76-0.32,2.6C327.409,387.853,327.25,387.292,327.209,386.732 M316.77,386.093
		c0.279,2.68,3.4,12.279,5.199,14.359c0.4,0.48,0.801,0.641,1.201,0.641c1.879,0,4.64-5.641,5.719-9.92
		c0.16,0.079,0.361,0.119,0.521,0.119c1.24,0,2.32-1.56,2.32-2.439c0-0.4-0.24-0.68-0.479-0.68c-0.48,0-0.761,1.279-1.801,1.279
		h-0.199c0.239-1.319,0.359-2.68,0.359-4.08c0-0.88-0.84-1.279-1.52-1.279c-2.041,0-2.48,1.72-2.48,2.88
		c0,1.359,0.88,2.56,1.68,3.279c-1.24,4.48-3.52,8.08-3.92,8.4c-0.64,0-2.48-4.08-3.4-8.16c-0.799-3.68-0.76-6.24-2.159-6.24
		c-0.521,0-1.08,0.48-1.08,1.48C316.729,385.853,316.729,385.973,316.77,386.093 M305.688,399.292c-0.52-0.159-0.68-0.88-0.68-1.64
		c0-1,0.24-2.16,0.36-2.56c0.16-1.16,0.96-3.761,2.8-3.761c1.44,0,2.84,2.801,3.44,4.601c-0.96,1.76-3.56,3.479-5.24,3.479
		C306.128,399.412,305.888,399.372,305.688,399.292 M305.128,387.492c1-0.88,2.52-1.88,3.959-1.88c2.16,0,4,3.04,4,6.12
		c0,0.8-0.119,1.56-0.319,2.28c-0.681-2.12-2.44-4.48-4.72-4.48c-3.92,0-4.72,6.24-4.72,7.92c0,1.92,0.68,3.681,3.16,3.681
		c2.2,0,4.6-1.48,5.84-3.16c0.44,1.76,1.28,2.84,2.68,2.84c1,0,1.48-0.72,1.48-1.28c0-0.399-0.279-0.76-0.76-0.76
		c-0.16,0-0.32,0.04-0.48,0.04c-0.92,0-1.359-1.36-1.6-2.2l0.08-0.2c0.52-1.279,0.96-3.16,0.96-5.12c0-4.04-2.32-7.64-5.479-7.64
		c-1.761,0-5.4,1.72-5.4,3.561c0,0.359,0.2,0.6,0.56,0.6C304.568,387.812,304.849,387.732,305.128,387.492 M295.568,387.973
		c-0.6,5.88-0.72,10.6-0.72,12.319c0,0.681,0.48,1.04,0.96,1.04c0.56,0,1.04-0.399,1.04-1.239v-0.48c0-2.12,0.32-9.04,0.48-9.92
		c0.32-1.96,2.36-4.68,4.28-4.68c1.04,0,1.36,0.6,1.36,1.279c0,2.12-1.56,2-1.56,2.761c0,0.56,0.48,1.279,1.2,1.279
		c0.96,0,2-1.8,2-4c0-1.68-0.68-3-2.64-3c-1.76,0-3.56,1.16-4.48,3.36c0-0.04,0.16-1,0.16-1.68c0-0.521-0.16-0.96-0.76-0.96
		c-0.32,0-0.64,0.199-0.84,0.64l-0.08,0.24 M382.439,397.372c0.199-4.199,0.561-7.76,0.76-11.56c0.16,0,0.36-0.04,0.641-0.04
		c3.799,0,5.6,3.16,5.6,6.439c0,5.24-3.08,7.32-6.439,7.32c-0.24,0-0.48,0-0.721-0.04L382.439,397.372z M382.439,397.372
		c0.199-4.199,0.561-7.76,0.76-11.56c0.16,0,0.36-0.04,0.641-0.04c3.799,0,5.6,3.16,5.6,6.439c0,5.24-3.08,7.32-6.439,7.32
		c-0.24,0-0.48,0-0.721-0.04L382.439,397.372z M382.439,397.372c0.199-4.199,0.561-7.76,0.76-11.56c0.16,0,0.36-0.04,0.641-0.04
		c3.799,0,5.6,3.16,5.6,6.439c0,5.24-3.08,7.32-6.439,7.32c-0.24,0-0.48,0-0.721-0.04L382.439,397.372z M382.439,397.372
		c0.199-4.199,0.561-7.76,0.76-11.56c0.16,0,0.36-0.04,0.641-0.04c3.799,0,5.6,3.16,5.6,6.439c0,5.24-3.08,7.32-6.439,7.32
		c-0.24,0-0.48,0-0.721-0.04L382.439,397.372z M382.199,401.093c0.24,0.04,0.52,0.04,0.76,0.04c5.08,0,8.4-3.881,8.4-8.641
		c0-4.84-2.76-8.399-7.88-8.399h-0.399c-0.201-0.2-0.601-0.32-0.961-0.32c-0.4,0-0.76,0.16-0.8,0.52
		c-2.601,0.561-4.88,2.16-4.88,4.601c0,0.84,0.48,1.16,1,1.16c0.48,0,0.96-0.28,1.04-0.721c0.36-1.96,1.44-2.8,2.72-3.199
		c-0.199,3.359-0.52,6.399-0.8,11.76 M374.199,386.812c0.4,0.479,0.68,1.04,0.84,1.4c-0.279,0.199-0.52,0.279-0.68,0.279
		c-0.32,0-0.48-0.24-0.48-0.6C373.879,387.612,374,387.213,374.199,386.812 M372.76,389.933c0.359,0.279,0.72,0.359,1.119,0.359
		c0.721,0,1.4-0.319,1.801-0.64c0.279,0.84,0.4,1.76,0.4,2.68c0,3.32-1.721,6.641-4.681,6.641c-3.319,0-4.601-3.601-4.601-6.28
		c0-3.6,1.92-7.32,4.561-7.32c0.52,0,1.04,0.12,1.6,0.44c-0.479,0.439-0.76,1.439-0.76,2.4
		C372.199,388.973,372.359,389.652,372.76,389.933 M375.279,384.732l-0.12-0.04l-0.44-0.6c-0.119-0.2-0.319-0.28-0.52-0.28
		c-0.16,0-0.359,0.08-0.48,0.24c-0.84-0.32-1.6-0.44-2.279-0.44c-1.6,0-2.801,0.72-3.721,1.64c-2.52,2.601-2.56,5.2-2.56,7.561
		c0,5.399,3.28,8.28,5.88,8.28c4,0,6.801-3.32,6.801-8.601c0-1.28-0.201-2.479-0.521-3.52c0.601-0.4,1.84-1.28,1.84-2.08
		c0-0.32-0.2-0.561-0.521-0.561c-0.52,0-1.399,0.521-2,0.801C376.159,386.213,375.399,384.973,375.279,384.732 M360.121,386.812
		c0.399,0.479,0.68,1.04,0.84,1.4c-0.281,0.199-0.521,0.279-0.681,0.279c-0.319,0-0.479-0.24-0.479-0.6
		C359.801,387.612,359.92,387.213,360.121,386.812 M358.68,389.933c0.361,0.279,0.721,0.359,1.121,0.359
		c0.72,0,1.399-0.319,1.8-0.64c0.28,0.84,0.399,1.76,0.399,2.68c0,3.32-1.72,6.641-4.68,6.641c-3.32,0-4.6-3.601-4.6-6.28
		c0-3.6,1.92-7.32,4.56-7.32c0.521,0,1.04,0.12,1.601,0.44c-0.48,0.439-0.76,1.439-0.76,2.4
		C358.121,388.973,358.28,389.652,358.68,389.933 M361.2,384.732l-0.12-0.04l-0.439-0.6c-0.12-0.2-0.32-0.28-0.52-0.28
		c-0.16,0-0.361,0.08-0.48,0.24c-0.84-0.32-1.6-0.44-2.28-0.44c-1.601,0-2.8,0.72-3.72,1.64c-2.52,2.601-2.561,5.2-2.561,7.561
		c0,5.399,3.28,8.28,5.881,8.28c4,0,6.799-3.32,6.799-8.601c0-1.28-0.199-2.479-0.52-3.52c0.6-0.4,1.84-1.28,1.84-2.08
		c0-0.32-0.199-0.561-0.52-0.561c-0.52,0-1.4,0.521-2,0.801C362.08,386.213,361.32,384.973,361.2,384.732 M350.377,358.225
		c0.365,0.964,0.6,2.253,0.703,3.867c0.104,1.614,0.098,3.516-0.019,5.702c-0.117,2.188-0.358,4.552-0.724,7.091
		c-0.364,2.539-0.858,5.194-1.483,7.969c-0.625,2.772-1.367,5.553-2.228,8.34c-0.754-2.787-1.322-5.586-1.699-8.399
		c-0.377-2.812-0.604-5.514-0.684-8.104c-0.078-2.591-0.013-5.006,0.196-7.246c0.208-2.24,0.526-4.173,0.957-5.801
		c0.429-1.627,0.95-2.892,1.562-3.789c0.612-0.899,1.283-1.295,2.012-1.192C349.543,356.74,350.012,357.262,350.377,358.225
		 M382.199,401.093c0.24,0.04,0.52,0.04,0.76,0.04c5.08,0,8.4-3.881,8.4-8.641c0-4.84-2.76-8.399-7.88-8.399h-0.399
		c-0.201-0.2-0.601-0.32-0.961-0.32c-0.4,0-0.76,0.16-0.8,0.52c-2.601,0.561-4.88,2.16-4.88,4.601c0,0.84,0.48,1.16,1,1.16
		c0.48,0,0.96-0.28,1.04-0.721c0.36-1.96,1.44-2.8,2.72-3.199c-0.199,3.359-0.52,6.399-0.8,11.76 M337.769,389.252
		c-1.601,2.48-4.16,4.32-5.72,5.2c-0.041-0.359-0.08-0.72-0.08-1.04c0-4.52,3.72-8.08,5.52-8.08c0.6,0,1,0.36,1,1.2
		C338.488,387.173,338.289,388.053,337.769,389.252 M339.328,390.173c0.521-1.12,0.721-2.24,0.721-3.16c0-2.561-1.16-3.44-2.84-3.44
		c-4.32,0-7.121,5.32-7.121,9.92c0,4.641,2.601,7.561,6.641,7.561c2.88,0,6.84-2.721,6.84-4.92c0-0.44-0.24-0.801-0.52-0.801
		c-0.16,0-0.36,0.12-0.561,0.36c-1.4,1.96-3.279,3.48-5.96,3.48c-1.64,0-3.04-1.08-3.76-2.4l-0.16-0.32
		C333.969,395.772,337.729,393.572,339.328,390.173 M327.209,386.732c0-0.84,0.4-0.84,0.801-1c-0.041,0.92-0.16,1.76-0.32,2.6
		C327.409,387.853,327.25,387.292,327.209,386.732 M316.77,386.093c0.279,2.68,3.4,12.279,5.199,14.359
		c0.4,0.48,0.801,0.641,1.201,0.641c1.879,0,4.64-5.641,5.719-9.92c0.16,0.079,0.361,0.119,0.521,0.119c1.24,0,2.32-1.56,2.32-2.439
		c0-0.4-0.24-0.68-0.479-0.68c-0.48,0-0.761,1.279-1.801,1.279h-0.199c0.239-1.319,0.359-2.68,0.359-4.08
		c0-0.88-0.84-1.279-1.52-1.279c-2.041,0-2.48,1.72-2.48,2.88c0,1.359,0.88,2.56,1.68,3.279c-1.24,4.48-3.52,8.08-3.92,8.4
		c-0.64,0-2.48-4.08-3.4-8.16c-0.799-3.68-0.76-6.24-2.159-6.24c-0.521,0-1.08,0.48-1.08,1.48
		C316.729,385.853,316.729,385.973,316.77,386.093 M305.688,399.292c-0.52-0.159-0.68-0.88-0.68-1.64c0-1,0.24-2.16,0.36-2.56
		c0.16-1.16,0.96-3.761,2.8-3.761c1.44,0,2.84,2.801,3.44,4.601c-0.96,1.76-3.56,3.479-5.24,3.479
		C306.128,399.412,305.888,399.372,305.688,399.292 M305.128,387.492c1-0.88,2.52-1.88,3.959-1.88c2.16,0,4,3.04,4,6.12
		c0,0.8-0.119,1.56-0.319,2.28c-0.681-2.12-2.44-4.48-4.72-4.48c-3.92,0-4.72,6.24-4.72,7.92c0,1.92,0.68,3.681,3.16,3.681
		c2.2,0,4.6-1.48,5.84-3.16c0.44,1.76,1.28,2.84,2.68,2.84c1,0,1.48-0.72,1.48-1.28c0-0.399-0.279-0.76-0.76-0.76
		c-0.16,0-0.32,0.04-0.48,0.04c-0.92,0-1.359-1.36-1.6-2.2l0.08-0.2c0.52-1.279,0.96-3.16,0.96-5.12c0-4.04-2.32-7.64-5.479-7.64
		c-1.761,0-5.4,1.72-5.4,3.561c0,0.359,0.2,0.6,0.56,0.6C304.568,387.812,304.849,387.732,305.128,387.492 M374.199,386.812
		c0.4,0.479,0.68,1.04,0.84,1.4c-0.279,0.199-0.52,0.279-0.68,0.279c-0.32,0-0.48-0.24-0.48-0.6
		C373.879,387.612,374,387.213,374.199,386.812 M372.76,389.933c0.359,0.279,0.72,0.359,1.119,0.359c0.721,0,1.4-0.319,1.801-0.64
		c0.279,0.84,0.4,1.76,0.4,2.68c0,3.32-1.721,6.641-4.681,6.641c-3.319,0-4.601-3.601-4.601-6.28c0-3.6,1.92-7.32,4.561-7.32
		c0.52,0,1.04,0.12,1.6,0.44c-0.479,0.439-0.76,1.439-0.76,2.4C372.199,388.973,372.359,389.652,372.76,389.933 M375.279,384.732
		l-0.12-0.04l-0.44-0.6c-0.119-0.2-0.319-0.28-0.52-0.28c-0.16,0-0.359,0.08-0.48,0.24c-0.84-0.32-1.6-0.44-2.279-0.44
		c-1.6,0-2.801,0.72-3.721,1.64c-2.52,2.601-2.56,5.2-2.56,7.561c0,5.399,3.28,8.28,5.88,8.28c4,0,6.801-3.32,6.801-8.601
		c0-1.28-0.201-2.479-0.521-3.52c0.601-0.4,1.84-1.28,1.84-2.08c0-0.32-0.2-0.561-0.521-0.561c-0.52,0-1.399,0.521-2,0.801
		C376.159,386.213,375.399,384.973,375.279,384.732 M360.121,386.812c0.399,0.479,0.68,1.04,0.84,1.4
		c-0.281,0.199-0.521,0.279-0.681,0.279c-0.319,0-0.479-0.24-0.479-0.6C359.801,387.612,359.92,387.213,360.121,386.812
		 M358.68,389.933c0.361,0.279,0.721,0.359,1.121,0.359c0.72,0,1.399-0.319,1.8-0.64c0.28,0.84,0.399,1.76,0.399,2.68
		c0,3.32-1.72,6.641-4.68,6.641c-3.32,0-4.6-3.601-4.6-6.28c0-3.6,1.92-7.32,4.56-7.32c0.521,0,1.04,0.12,1.601,0.44
		c-0.48,0.439-0.76,1.439-0.76,2.4C358.121,388.973,358.28,389.652,358.68,389.933 M361.2,384.732l-0.12-0.04l-0.439-0.6
		c-0.12-0.2-0.32-0.28-0.52-0.28c-0.16,0-0.361,0.08-0.48,0.24c-0.84-0.32-1.6-0.44-2.28-0.44c-1.601,0-2.8,0.72-3.72,1.64
		c-2.52,2.601-2.561,5.2-2.561,7.561c0,5.399,3.28,8.28,5.881,8.28c4,0,6.799-3.32,6.799-8.601c0-1.28-0.199-2.479-0.52-3.52
		c0.6-0.4,1.84-1.28,1.84-2.08c0-0.32-0.199-0.561-0.52-0.561c-0.52,0-1.4,0.521-2,0.801
		C362.08,386.213,361.32,384.973,361.2,384.732 M350.377,358.225c0.365,0.964,0.6,2.253,0.703,3.867
		c0.104,1.614,0.098,3.516-0.019,5.702c-0.117,2.188-0.358,4.552-0.724,7.091c-0.364,2.539-0.858,5.194-1.483,7.969
		c-0.625,2.772-1.367,5.553-2.228,8.34c-0.754-2.787-1.322-5.586-1.699-8.399c-0.377-2.812-0.604-5.514-0.684-8.104
		c-0.078-2.591-0.013-5.006,0.196-7.246c0.208-2.24,0.526-4.173,0.957-5.801c0.429-1.627,0.95-2.892,1.562-3.789
		c0.612-0.899,1.283-1.295,2.012-1.192C349.543,356.74,350.012,357.262,350.377,358.225 M337.769,389.252
		c-1.601,2.48-4.16,4.32-5.72,5.2c-0.041-0.359-0.08-0.72-0.08-1.04c0-4.52,3.72-8.08,5.52-8.08c0.6,0,1,0.36,1,1.2
		C338.488,387.173,338.289,388.053,337.769,389.252 M339.328,390.173c0.521-1.12,0.721-2.24,0.721-3.16c0-2.561-1.16-3.44-2.84-3.44
		c-4.32,0-7.121,5.32-7.121,9.92c0,4.641,2.601,7.561,6.641,7.561c2.88,0,6.84-2.721,6.84-4.92c0-0.44-0.24-0.801-0.52-0.801
		c-0.16,0-0.36,0.12-0.561,0.36c-1.4,1.96-3.279,3.48-5.96,3.48c-1.64,0-3.04-1.08-3.76-2.4l-0.16-0.32
		C333.969,395.772,337.729,393.572,339.328,390.173 M327.209,386.732c0-0.84,0.4-0.84,0.801-1c-0.041,0.92-0.16,1.76-0.32,2.6
		C327.409,387.853,327.25,387.292,327.209,386.732 M316.77,386.093c0.279,2.68,3.4,12.279,5.199,14.359
		c0.4,0.48,0.801,0.641,1.201,0.641c1.879,0,4.64-5.641,5.719-9.92c0.16,0.079,0.361,0.119,0.521,0.119c1.24,0,2.32-1.56,2.32-2.439
		c0-0.4-0.24-0.68-0.479-0.68c-0.48,0-0.761,1.279-1.801,1.279h-0.199c0.239-1.319,0.359-2.68,0.359-4.08
		c0-0.88-0.84-1.279-1.52-1.279c-2.041,0-2.48,1.72-2.48,2.88c0,1.359,0.88,2.56,1.68,3.279c-1.24,4.48-3.52,8.08-3.92,8.4
		c-0.64,0-2.48-4.08-3.4-8.16c-0.799-3.68-0.76-6.24-2.159-6.24c-0.521,0-1.08,0.48-1.08,1.48
		C316.729,385.853,316.729,385.973,316.77,386.093 M305.688,399.292c-0.52-0.159-0.68-0.88-0.68-1.64c0-1,0.24-2.16,0.36-2.56
		c0.16-1.16,0.96-3.761,2.8-3.761c1.44,0,2.84,2.801,3.44,4.601c-0.96,1.76-3.56,3.479-5.24,3.479
		C306.128,399.412,305.888,399.372,305.688,399.292 M305.128,387.492c1-0.88,2.52-1.88,3.959-1.88c2.16,0,4,3.04,4,6.12
		c0,0.8-0.119,1.56-0.319,2.28c-0.681-2.12-2.44-4.48-4.72-4.48c-3.92,0-4.72,6.24-4.72,7.92c0,1.92,0.68,3.681,3.16,3.681
		c2.2,0,4.6-1.48,5.84-3.16c0.44,1.76,1.28,2.84,2.68,2.84c1,0,1.48-0.72,1.48-1.28c0-0.399-0.279-0.76-0.76-0.76
		c-0.16,0-0.32,0.04-0.48,0.04c-0.92,0-1.359-1.36-1.6-2.2l0.08-0.2c0.52-1.279,0.96-3.16,0.96-5.12c0-4.04-2.32-7.64-5.479-7.64
		c-1.761,0-5.4,1.72-5.4,3.561c0,0.359,0.2,0.6,0.56,0.6C304.568,387.812,304.849,387.732,305.128,387.492 M295.568,387.973
		c-0.6,5.88-0.72,10.6-0.72,12.319c0,0.681,0.48,1.04,0.96,1.04c0.56,0,1.04-0.399,1.04-1.239v-0.48c0-2.12,0.32-9.04,0.48-9.92
		c0.32-1.96,2.36-4.68,4.28-4.68c1.04,0,1.36,0.6,1.36,1.279c0,2.12-1.56,2-1.56,2.761c0,0.56,0.48,1.279,1.2,1.279
		c0.96,0,2-1.8,2-4c0-1.68-0.68-3-2.64-3c-1.76,0-3.56,1.16-4.48,3.36c0-0.04,0.16-1,0.16-1.68c0-0.521-0.16-0.96-0.76-0.96
		c-0.32,0-0.64,0.199-0.84,0.64l-0.08,0.24 M374.199,386.812c0.4,0.479,0.68,1.04,0.84,1.4c-0.279,0.199-0.52,0.279-0.68,0.279
		c-0.32,0-0.48-0.24-0.48-0.6C373.879,387.612,374,387.213,374.199,386.812 M372.76,389.933c0.359,0.279,0.72,0.359,1.119,0.359
		c0.721,0,1.4-0.319,1.801-0.64c0.279,0.84,0.4,1.76,0.4,2.68c0,3.32-1.721,6.641-4.681,6.641c-3.319,0-4.601-3.601-4.601-6.28
		c0-3.6,1.92-7.32,4.561-7.32c0.52,0,1.04,0.12,1.6,0.44c-0.479,0.439-0.76,1.439-0.76,2.4
		C372.199,388.973,372.359,389.652,372.76,389.933 M375.279,384.732l-0.12-0.04l-0.44-0.6c-0.119-0.2-0.319-0.28-0.52-0.28
		c-0.16,0-0.359,0.08-0.48,0.24c-0.84-0.32-1.6-0.44-2.279-0.44c-1.6,0-2.801,0.72-3.721,1.64c-2.52,2.601-2.56,5.2-2.56,7.561
		c0,5.399,3.28,8.28,5.88,8.28c4,0,6.801-3.32,6.801-8.601c0-1.28-0.201-2.479-0.521-3.52c0.601-0.4,1.84-1.28,1.84-2.08
		c0-0.32-0.2-0.561-0.521-0.561c-0.52,0-1.399,0.521-2,0.801C376.159,386.213,375.399,384.973,375.279,384.732 M360.121,386.812
		c0.399,0.479,0.68,1.04,0.84,1.4c-0.281,0.199-0.521,0.279-0.681,0.279c-0.319,0-0.479-0.24-0.479-0.6
		C359.801,387.612,359.92,387.213,360.121,386.812 M358.68,389.933c0.361,0.279,0.721,0.359,1.121,0.359
		c0.72,0,1.399-0.319,1.8-0.64c0.28,0.84,0.399,1.76,0.399,2.68c0,3.32-1.72,6.641-4.68,6.641c-3.32,0-4.6-3.601-4.6-6.28
		c0-3.6,1.92-7.32,4.56-7.32c0.521,0,1.04,0.12,1.601,0.44c-0.48,0.439-0.76,1.439-0.76,2.4
		C358.121,388.973,358.28,389.652,358.68,389.933 M361.2,384.732l-0.12-0.04l-0.439-0.6c-0.12-0.2-0.32-0.28-0.52-0.28
		c-0.16,0-0.361,0.08-0.48,0.24c-0.84-0.32-1.6-0.44-2.28-0.44c-1.601,0-2.8,0.72-3.72,1.64c-2.52,2.601-2.561,5.2-2.561,7.561
		c0,5.399,3.28,8.28,5.881,8.28c4,0,6.799-3.32,6.799-8.601c0-1.28-0.199-2.479-0.52-3.52c0.6-0.4,1.84-1.28,1.84-2.08
		c0-0.32-0.199-0.561-0.52-0.561c-0.52,0-1.4,0.521-2,0.801C362.08,386.213,361.32,384.973,361.2,384.732 M350.377,358.225
		c0.365,0.964,0.6,2.253,0.703,3.867c0.104,1.614,0.098,3.516-0.019,5.702c-0.117,2.188-0.358,4.552-0.724,7.091
		c-0.364,2.539-0.858,5.194-1.483,7.969c-0.625,2.772-1.367,5.553-2.228,8.34c-0.754-2.787-1.322-5.586-1.699-8.399
		c-0.377-2.812-0.604-5.514-0.684-8.104c-0.078-2.591-0.013-5.006,0.196-7.246c0.208-2.24,0.526-4.173,0.957-5.801
		c0.429-1.627,0.95-2.892,1.562-3.789c0.612-0.899,1.283-1.295,2.012-1.192C349.543,356.74,350.012,357.262,350.377,358.225
		 M337.769,389.252c-1.601,2.48-4.16,4.32-5.72,5.2c-0.041-0.359-0.08-0.72-0.08-1.04c0-4.52,3.72-8.08,5.52-8.08
		c0.6,0,1,0.36,1,1.2C338.488,387.173,338.289,388.053,337.769,389.252 M339.328,390.173c0.521-1.12,0.721-2.24,0.721-3.16
		c0-2.561-1.16-3.44-2.84-3.44c-4.32,0-7.121,5.32-7.121,9.92c0,4.641,2.601,7.561,6.641,7.561c2.88,0,6.84-2.721,6.84-4.92
		c0-0.44-0.24-0.801-0.52-0.801c-0.16,0-0.36,0.12-0.561,0.36c-1.4,1.96-3.279,3.48-5.96,3.48c-1.64,0-3.04-1.08-3.76-2.4
		l-0.16-0.32C333.969,395.772,337.729,393.572,339.328,390.173 M327.209,386.732c0-0.84,0.4-0.84,0.801-1
		c-0.041,0.92-0.16,1.76-0.32,2.6C327.409,387.853,327.25,387.292,327.209,386.732 M316.77,386.093
		c0.279,2.68,3.4,12.279,5.199,14.359c0.4,0.48,0.801,0.641,1.201,0.641c1.879,0,4.64-5.641,5.719-9.92
		c0.16,0.079,0.361,0.119,0.521,0.119c1.24,0,2.32-1.56,2.32-2.439c0-0.4-0.24-0.68-0.479-0.68c-0.48,0-0.761,1.279-1.801,1.279
		h-0.199c0.239-1.319,0.359-2.68,0.359-4.08c0-0.88-0.84-1.279-1.52-1.279c-2.041,0-2.48,1.72-2.48,2.88
		c0,1.359,0.88,2.56,1.68,3.279c-1.24,4.48-3.52,8.08-3.92,8.4c-0.64,0-2.48-4.08-3.4-8.16c-0.799-3.68-0.76-6.24-2.159-6.24
		c-0.521,0-1.08,0.48-1.08,1.48C316.729,385.853,316.729,385.973,316.77,386.093 M305.688,399.292c-0.52-0.159-0.68-0.88-0.68-1.64
		c0-1,0.24-2.16,0.36-2.56c0.16-1.16,0.96-3.761,2.8-3.761c1.44,0,2.84,2.801,3.44,4.601c-0.96,1.76-3.56,3.479-5.24,3.479
		C306.128,399.412,305.888,399.372,305.688,399.292 M305.128,387.492c1-0.88,2.52-1.88,3.959-1.88c2.16,0,4,3.04,4,6.12
		c0,0.8-0.119,1.56-0.319,2.28c-0.681-2.12-2.44-4.48-4.72-4.48c-3.92,0-4.72,6.24-4.72,7.92c0,1.92,0.68,3.681,3.16,3.681
		c2.2,0,4.6-1.48,5.84-3.16c0.44,1.76,1.28,2.84,2.68,2.84c1,0,1.48-0.72,1.48-1.28c0-0.399-0.279-0.76-0.76-0.76
		c-0.16,0-0.32,0.04-0.48,0.04c-0.92,0-1.359-1.36-1.6-2.2l0.08-0.2c0.52-1.279,0.96-3.16,0.96-5.12c0-4.04-2.32-7.64-5.479-7.64
		c-1.761,0-5.4,1.72-5.4,3.561c0,0.359,0.2,0.6,0.56,0.6C304.568,387.812,304.849,387.732,305.128,387.492 M295.568,387.973
		c-0.6,5.88-0.72,10.6-0.72,12.319c0,0.681,0.48,1.04,0.96,1.04c0.56,0,1.04-0.399,1.04-1.239v-0.48c0-2.12,0.32-9.04,0.48-9.92
		c0.32-1.96,2.36-4.68,4.28-4.68c1.04,0,1.36,0.6,1.36,1.279c0,2.12-1.56,2-1.56,2.761c0,0.56,0.48,1.279,1.2,1.279
		c0.96,0,2-1.8,2-4c0-1.68-0.68-3-2.64-3c-1.76,0-3.56,1.16-4.48,3.36c0-0.04,0.16-1,0.16-1.68c0-0.521-0.16-0.96-0.76-0.96
		c-0.32,0-0.64,0.199-0.84,0.64l-0.08,0.24 M374.199,386.812c0.4,0.479,0.68,1.04,0.84,1.4c-0.279,0.199-0.52,0.279-0.68,0.279
		c-0.32,0-0.48-0.24-0.48-0.6C373.879,387.612,374,387.213,374.199,386.812 M372.76,389.933c0.359,0.279,0.72,0.359,1.119,0.359
		c0.721,0,1.4-0.319,1.801-0.64c0.279,0.84,0.4,1.76,0.4,2.68c0,3.32-1.721,6.641-4.681,6.641c-3.319,0-4.601-3.601-4.601-6.28
		c0-3.6,1.92-7.32,4.561-7.32c0.52,0,1.04,0.12,1.6,0.44c-0.479,0.439-0.76,1.439-0.76,2.4
		C372.199,388.973,372.359,389.652,372.76,389.933 M375.279,384.732l-0.12-0.04l-0.44-0.6c-0.119-0.2-0.319-0.28-0.52-0.28
		c-0.16,0-0.359,0.08-0.48,0.24c-0.84-0.32-1.6-0.44-2.279-0.44c-1.6,0-2.801,0.72-3.721,1.64c-2.52,2.601-2.56,5.2-2.56,7.561
		c0,5.399,3.28,8.28,5.88,8.28c4,0,6.801-3.32,6.801-8.601c0-1.28-0.201-2.479-0.521-3.52c0.601-0.4,1.84-1.28,1.84-2.08
		c0-0.32-0.2-0.561-0.521-0.561c-0.52,0-1.399,0.521-2,0.801C376.159,386.213,375.399,384.973,375.279,384.732 M360.121,386.812
		c0.399,0.479,0.68,1.04,0.84,1.4c-0.281,0.199-0.521,0.279-0.681,0.279c-0.319,0-0.479-0.24-0.479-0.6
		C359.801,387.612,359.92,387.213,360.121,386.812 M358.68,389.933c0.361,0.279,0.721,0.359,1.121,0.359
		c0.72,0,1.399-0.319,1.8-0.64c0.28,0.84,0.399,1.76,0.399,2.68c0,3.32-1.72,6.641-4.68,6.641c-3.32,0-4.6-3.601-4.6-6.28
		c0-3.6,1.92-7.32,4.56-7.32c0.521,0,1.04,0.12,1.601,0.44c-0.48,0.439-0.76,1.439-0.76,2.4
		C358.121,388.973,358.28,389.652,358.68,389.933 M361.2,384.732l-0.12-0.04l-0.439-0.6c-0.12-0.2-0.32-0.28-0.52-0.28
		c-0.16,0-0.361,0.08-0.48,0.24c-0.84-0.32-1.6-0.44-2.28-0.44c-1.601,0-2.8,0.72-3.72,1.64c-2.52,2.601-2.561,5.2-2.561,7.561
		c0,5.399,3.28,8.28,5.881,8.28c4,0,6.799-3.32,6.799-8.601c0-1.28-0.199-2.479-0.52-3.52c0.6-0.4,1.84-1.28,1.84-2.08
		c0-0.32-0.199-0.561-0.52-0.561c-0.52,0-1.4,0.521-2,0.801C362.08,386.213,361.32,384.973,361.2,384.732 M350.377,358.225
		c0.365,0.964,0.6,2.253,0.703,3.867c0.104,1.614,0.098,3.516-0.019,5.702c-0.117,2.188-0.358,4.552-0.724,7.091
		c-0.364,2.539-0.858,5.194-1.483,7.969c-0.625,2.772-1.367,5.553-2.228,8.34c-0.754-2.787-1.322-5.586-1.699-8.399
		c-0.377-2.812-0.604-5.514-0.684-8.104c-0.078-2.591-0.013-5.006,0.196-7.246c0.208-2.24,0.526-4.173,0.957-5.801
		c0.429-1.627,0.95-2.892,1.562-3.789c0.612-0.899,1.283-1.295,2.012-1.192C349.543,356.74,350.012,357.262,350.377,358.225
		 M337.769,389.252c-1.601,2.48-4.16,4.32-5.72,5.2c-0.041-0.359-0.08-0.72-0.08-1.04c0-4.52,3.72-8.08,5.52-8.08
		c0.6,0,1,0.36,1,1.2C338.488,387.173,338.289,388.053,337.769,389.252 M339.328,390.173c0.521-1.12,0.721-2.24,0.721-3.16
		c0-2.561-1.16-3.44-2.84-3.44c-4.32,0-7.121,5.32-7.121,9.92c0,4.641,2.601,7.561,6.641,7.561c2.88,0,6.84-2.721,6.84-4.92
		c0-0.44-0.24-0.801-0.52-0.801c-0.16,0-0.36,0.12-0.561,0.36c-1.4,1.96-3.279,3.48-5.96,3.48c-1.64,0-3.04-1.08-3.76-2.4
		l-0.16-0.32C333.969,395.772,337.729,393.572,339.328,390.173 M327.209,386.732c0-0.84,0.4-0.84,0.801-1
		c-0.041,0.92-0.16,1.76-0.32,2.6C327.409,387.853,327.25,387.292,327.209,386.732 M316.77,386.093
		c0.279,2.68,3.4,12.279,5.199,14.359c0.4,0.48,0.801,0.641,1.201,0.641c1.879,0,4.64-5.641,5.719-9.92
		c0.16,0.079,0.361,0.119,0.521,0.119c1.24,0,2.32-1.56,2.32-2.439c0-0.4-0.24-0.68-0.479-0.68c-0.48,0-0.761,1.279-1.801,1.279
		h-0.199c0.239-1.319,0.359-2.68,0.359-4.08c0-0.88-0.84-1.279-1.52-1.279c-2.041,0-2.48,1.72-2.48,2.88
		c0,1.359,0.88,2.56,1.68,3.279c-1.24,4.48-3.52,8.08-3.92,8.4c-0.64,0-2.48-4.08-3.4-8.16c-0.799-3.68-0.76-6.24-2.159-6.24
		c-0.521,0-1.08,0.48-1.08,1.48C316.729,385.853,316.729,385.973,316.77,386.093 M305.688,399.292c-0.52-0.159-0.68-0.88-0.68-1.64
		c0-1,0.24-2.16,0.36-2.56c0.16-1.16,0.96-3.761,2.8-3.761c1.44,0,2.84,2.801,3.44,4.601c-0.96,1.76-3.56,3.479-5.24,3.479
		C306.128,399.412,305.888,399.372,305.688,399.292 M305.128,387.492c1-0.88,2.52-1.88,3.959-1.88c2.16,0,4,3.04,4,6.12
		c0,0.8-0.119,1.56-0.319,2.28c-0.681-2.12-2.44-4.48-4.72-4.48c-3.92,0-4.72,6.24-4.72,7.92c0,1.92,0.68,3.681,3.16,3.681
		c2.2,0,4.6-1.48,5.84-3.16c0.44,1.76,1.28,2.84,2.68,2.84c1,0,1.48-0.72,1.48-1.28c0-0.399-0.279-0.76-0.76-0.76
		c-0.16,0-0.32,0.04-0.48,0.04c-0.92,0-1.359-1.36-1.6-2.2l0.08-0.2c0.52-1.279,0.96-3.16,0.96-5.12c0-4.04-2.32-7.64-5.479-7.64
		c-1.761,0-5.4,1.72-5.4,3.561c0,0.359,0.2,0.6,0.56,0.6C304.568,387.812,304.849,387.732,305.128,387.492 M295.568,387.973
		c-0.6,5.88-0.72,10.6-0.72,12.319c0,0.681,0.48,1.04,0.96,1.04c0.56,0,1.04-0.399,1.04-1.239v-0.48c0-2.12,0.32-9.04,0.48-9.92
		c0.32-1.96,2.36-4.68,4.28-4.68c1.04,0,1.36,0.6,1.36,1.279c0,2.12-1.56,2-1.56,2.761c0,0.56,0.48,1.279,1.2,1.279
		c0.96,0,2-1.8,2-4c0-1.68-0.68-3-2.64-3c-1.76,0-3.56,1.16-4.48,3.36c0-0.04,0.16-1,0.16-1.68c0-0.521-0.16-0.96-0.76-0.96
		c-0.32,0-0.64,0.199-0.84,0.64l-0.08,0.24"/>
	<path clip-path="url(#SVGID_2_)" fill="#00AEEF" d="M350.377,358.225c0.365,0.964,0.6,2.253,0.703,3.866
		c0.104,1.615,0.099,3.517-0.019,5.703c-0.118,2.188-0.358,4.552-0.724,7.091c-0.364,2.538-0.858,5.194-1.483,7.969
		c-0.625,2.772-1.368,5.553-2.228,8.34c-0.756-2.787-1.321-5.586-1.698-8.399c-0.378-2.812-0.606-5.514-0.685-8.104
		s-0.013-5.006,0.196-7.246c0.208-2.24,0.527-4.173,0.957-5.801c0.429-1.627,0.95-2.892,1.562-3.789
		c0.613-0.899,1.283-1.295,2.013-1.191C349.543,356.74,350.013,357.262,350.377,358.225"/>
	<path clip-path="url(#SVGID_2_)" fill="#00AEEF" d="M382.439,397.372c0.199-4.199,0.561-7.76,0.76-11.56
		c0.16,0,0.359-0.04,0.641-0.04c3.799,0,5.6,3.16,5.6,6.439c0,5.24-3.08,7.32-6.439,7.32c-0.24,0-0.48,0-0.721-0.04L382.439,397.372
		z"/>
</g>
</svg>
